<?xml version="1.0" encoding="UTF-8"?>
<svg id="Layer_2" data-name="Layer 2" xmlns="http://www.w3.org/2000/svg" viewBox="0 0 68.3 70.23">
  <defs>
    <style>
      .cls-1 {
        fill: #c07124;
      }

      .cls-2 {
        fill: #79422b;
      }
    </style>
  </defs>
  <g id="Layer_1-2" data-name="Layer 1">
    <g>
      <path class="cls-2" d="M7.81,62.43C1.05,55.7.26,47.27.08,45.09c-1-12.64,7.03-21.98,12.56-28.42C19.46,8.75,26.03,1.1,36.87.11c12.23-1.12,25.83,6.6,30.09,18.68,3.81,10.8-1.4,20.7-4.5,26.61-1.06,2.02-13.63,25.11-34.83,24.83-2.17-.03-12.15-.16-19.81-7.79Z"/>
      <path class="cls-1" d="M48.62,7.96c-1.24.88-1.03,3.67-.43,5.37.38,1.08.94,1.78,1.53,2.51.75.93,1.1,1.08,4.27,3.61,1.43,1.13,1.66,1.32,2.22,1.49,1.22.38,2.96.04,3.67-.92,1.35-1.83-1.18-5.79-3.02-7.82-2.36-2.62-6.51-5.48-8.25-4.25Z"/>
    </g>
  </g>
</svg>