<?xml version="1.0" encoding="UTF-8"?>
<svg id="Layer_2" data-name="Layer 2" xmlns="http://www.w3.org/2000/svg" viewBox="0 0 99.23 115.94">
  <defs>
    <style>
      .cls-1 {
        fill: #c07124;
      }

      .cls-2 {
        fill: #79422b;
      }
    </style>
  </defs>
  <g id="Layer_1-2" data-name="Layer 1">
    <g>
      <path class="cls-2" d="M60.35,115.89c3.35-.16,15.34-.73,25.2-9.15,19.91-16.99,14.66-51.85,5.68-71.8-3.63-8.07-13.86-30.79-34.88-34.44-15.25-2.65-28.55,6.06-32.85,8.86-3.34,2.18-13.55,9.05-19.35,21.77-10.07,22.1-.23,47.5,12.12,62.28,3.66,4.38,19.76,23.63,44.07,22.48Z"/>
      <path class="cls-1" d="M24.45,6.67c5.66-2.71,12.99-2.68,14.14-.24.25.53.14,1.59-.09,3.7-.14,1.3-.43,2.22-.8,3.24-.09.25-.23.52-.43.82-1.31,1.91-3.67,2.45-4.5,2.65-.28.07-.19.03-.61.11-.51.1-2.54.5-4.21,1.35-2.33,1.2-3.62,3.14-4.88,3.04-.33-.03-.65-.12-.65-.12-.77-.27-1.08-.92-3.23-1.56-1.57-.46-2.29-.31-2.82-.97-.72-.89-.33-2.31-.15-2.97.58-2.05,2.73-6.42,8.23-9.05Z"/>
    </g>
  </g>
</svg>