<?xml version="1.0" encoding="UTF-8"?>
<svg id="Layer_2" data-name="Layer 2" xmlns="http://www.w3.org/2000/svg" viewBox="0 0 90.84 122.36">
  <defs>
    <style>
      .cls-1 {
        fill: #c07124;
      }

      .cls-2 {
        fill: #79422b;
      }
    </style>
  </defs>
  <g id="Layer_1-2" data-name="Layer 1">
    <g>
      <path class="cls-2" d="M88.07,31.74C81.41,14.15,62.81-1.2,45.13.07,14.09,2.32-7.93,55.42,2.72,92.07c1.22,4.21,7.54,25.96,23.15,29.74,18.09,4.38,36.14-18.42,43.04-27.12,9.89-12.49,29.1-36.74,19.17-62.95Z"/>
      <path class="cls-1" d="M67.47,13.78c-3.74,2.62-4.39,4.57-4.3,5.88.13,1.83.9,3.19,2.87,5.89.67.92,2.23,2.93,4.83,4.94,2.34,1.8,3.52,2.57,5.15,2.71,2.01.18,4.07-1.29,5.07-2.83,2.29-3.57-.26-8.92-2.58-11.66-3.94-4.66-9.84-4.91-11.05-4.93Z"/>
    </g>
  </g>
</svg>