<?xml version="1.0" encoding="UTF-8"?>
<svg id="Layer_2" data-name="Layer 2" xmlns="http://www.w3.org/2000/svg" viewBox="0 0 50.73 46.35">
  <defs>
    <style>
      .cls-1 {
        fill: #c07124;
      }

      .cls-2 {
        fill: #79422b;
      }
    </style>
  </defs>
  <g id="Layer_1-2" data-name="Layer 1">
    <g>
      <path class="cls-2" d="M2.09,36.04C-1.04,30.13.18,24.32.52,22.83,2.47,14.17,9.78,9.58,14.82,6.43,21.02,2.54,27.01-1.21,34.46.37c8.42,1.79,15.91,9.78,16.25,18.74.31,8.01-5.23,13.56-8.53,16.87-1.13,1.13-14.33,13.97-28.46,9.38-1.45-.47-8.1-2.63-11.64-9.33Z"/>
      <path class="cls-1" d="M40.7,8.07c-1.01.33-1.45,2.24-1.4,3.5.03.8.26,1.39.5,2,.31.78.51.95,2.11,3.3.72,1.06.84,1.23,1.18,1.46.74.51,1.97.64,2.64.15,1.28-.95.41-4.12-.39-5.86-1.04-2.24-3.22-5.01-4.64-4.55Z"/>
    </g>
  </g>
</svg>