<?xml version="1.0" encoding="UTF-8"?>
<svg id="Layer_2" data-name="Layer 2" xmlns="http://www.w3.org/2000/svg" viewBox="0 0 49.78 62.08">
  <defs>
    <style>
      .cls-1 {
        fill: #c07124;
      }

      .cls-2 {
        fill: #79422b;
      }
    </style>
  </defs>
  <g id="Layer_1-2" data-name="Layer 1">
    <g>
      <path class="cls-2" d="M33.73,61.14c7.61-2.35,11.47-8.26,12.45-9.8,5.65-8.95,3.35-18.97,1.77-25.87-1.95-8.5-3.83-16.7-11.45-21.65C27.9-1.77,14.86-1.35,7.02,5.91.01,12.41,0,21.75,0,27.31c0,1.91.31,23.85,16.07,31.88,1.62.82,9.04,4.61,17.66,1.95Z"/>
      <path class="cls-1" d="M24.77,5.05c.58,1.13-.67,3.11-1.77,4.13-.7.65-1.39.95-2.11,1.26-.92.4-1.23.37-4.56,1.01-1.49.28-1.74.33-2.22.24-1.05-.19-2.2-1.12-2.35-2.1-.28-1.88,3.12-3.82,5.27-4.6,2.76-1.01,6.93-1.51,7.74.07Z"/>
    </g>
  </g>
</svg>