<?xml version="1.0" encoding="UTF-8"?>
<svg id="Layer_2" data-name="Layer 2" xmlns="http://www.w3.org/2000/svg" viewBox="0 0 59.57 74.41">
  <defs>
    <style>
      .cls-1 {
        fill: #c07124;
      }

      .cls-2 {
        fill: #79422b;
      }
    </style>
  </defs>
  <g id="Layer_1-2" data-name="Layer 1">
    <g>
      <path class="cls-2" d="M40.17,73.34c9.14-2.75,13.81-9.81,14.99-11.65,6.84-10.68,4.16-22.7,2.31-30.98-2.27-10.2-4.47-20.04-13.56-26.03C33.65-2.08,18.02-1.68,8.57,6.96.12,14.69.05,25.88,0,32.55c-.02,2.28.19,28.57,19.02,38.32,1.93,1,10.79,5.59,21.15,2.46Z"/>
      <path class="cls-1" d="M29.68,5.24c.54,1.42-1.19,3.62-2.63,4.7-.92.69-1.78.96-2.67,1.24-1.14.36-1.52.29-5.56.62-1.82.15-2.12.17-2.68,0-1.23-.37-2.48-1.62-2.54-2.81-.1-2.27,4.21-4.15,6.86-4.81,3.42-.86,8.45-.92,9.22,1.07Z"/>
    </g>
  </g>
</svg>