<svg width="331" height="331" viewBox="0 0 331 331" fill="none" xmlns="http://www.w3.org/2000/svg">
<g clip-path="url(#clip0_23_31178)">
<path d="M165.5 330.993C256.903 330.993 331 256.896 331 165.493C331 74.0901 256.903 -0.00679016 165.5 -0.00679016C74.0969 -0.00679016 0 74.0901 0 165.493C0 256.896 74.0969 330.993 165.5 330.993Z" fill="#C07124"/>
<path d="M333.881 54.3938C306.762 32.6986 276.315 32.9766 267.386 33.1936C238.152 33.9054 215.718 46.6445 201.473 57.5531C199.783 57.5941 198.097 57.7299 196.422 57.9599C195.914 58.0277 195.419 58.1091 194.938 58.1972C193.985 56.2818 192.623 54.5994 190.947 53.2695C189.272 51.9397 187.324 50.9949 185.243 50.5022C180.185 49.4242 176.131 51.9734 171.927 54.604C168.537 56.7463 163.554 59.8515 162.232 65.7295C161.516 68.7438 161.891 71.9143 163.29 74.6787C165.697 79.2211 170.205 80.6856 171.181 81.0042C172.931 81.5657 174.775 81.7731 176.605 81.6144C173.966 84.8732 171.534 88.193 169.31 91.5738C167.703 92.1704 166.029 92.862 164.286 93.6755C163.608 93.9874 162.991 94.3061 162.368 94.6247C160.256 92.419 157.687 90.7034 154.84 89.5987C151.994 88.4941 148.94 88.0273 145.893 88.2314C138.544 88.9094 134.09 94.0959 129.473 99.4654C125.723 103.825 120.279 110.164 120.957 118.733C121.258 123.147 123.113 127.312 126.191 130.489C131.391 135.662 138.157 135.757 139.628 135.771C143.688 135.781 147.661 134.602 151.059 132.381C149.231 139.113 147.818 145.951 146.829 152.856C144.483 153.337 142.049 153.9 139.493 154.605C138.625 154.849 137.771 155.1 136.937 155.351C130.91 147.771 121.852 142.388 113.106 143.025C92.0891 144.544 77.133 180.544 84.3534 205.399C85.1805 208.253 89.4653 223.026 100.042 225.562C112.306 228.531 124.544 213.08 129.195 207.175C135.9 198.707 148.924 182.266 142.191 164.497C140.931 161.243 139.182 158.2 137.005 155.473L146.829 152.917C144.783 167.129 144.299 181.522 145.385 195.839C143.613 196.942 142.218 198.557 141.384 200.47C137.801 203.578 134.915 207.409 132.917 211.711C126.089 226.694 132.761 243.921 141.134 253.935C143.615 256.904 154.53 269.962 171.012 269.176C173.283 269.067 181.412 268.681 188.097 262.972C201.595 251.447 198.036 227.819 191.948 214.294C189.487 208.822 182.551 193.419 168.3 190.944C161.778 189.805 155.778 191.738 151.513 193.799C150.359 193.913 149.222 194.159 148.124 194.531C150.157 176.592 155.812 147.141 171.819 120.042L176.348 127.384C173.877 128.139 171.602 129.425 169.683 131.154C163.961 136.395 163.907 143.981 163.873 148.503C163.873 150.049 164.002 167.873 176.754 174.483C178.063 175.161 184.07 178.266 191.094 176.151C195.31 174.803 198.913 172.004 201.263 168.253C205.9 161.012 204.084 152.856 202.829 147.235C201.29 140.32 199.799 133.676 193.636 129.608C191.169 128.067 188.408 127.059 185.529 126.648C182.65 126.237 179.716 126.432 176.917 127.222C176.409 126.266 175.873 125.289 175.27 124.286C174.225 122.55 173.161 120.964 172.103 119.54C180.14 105.86 190.665 93.8045 203.134 83.9941L206.253 87.9873C204.482 88.6411 202.855 89.631 201.46 90.9026C196.714 95.3095 196.714 101.642 196.714 105.411C196.714 106.706 196.924 121.581 207.609 127.032C208.707 127.588 213.711 130.15 219.589 128.347C223.098 127.197 226.088 124.844 228.029 121.703C231.86 115.635 230.301 108.821 229.23 104.164C227.874 98.401 226.626 92.8349 221.467 89.4857C219.298 88.1475 216.861 87.3026 214.329 87.0109C211.797 86.7191 209.232 86.9877 206.816 87.7975C206.477 87.3162 206.138 86.8348 205.765 86.3534C205.033 85.3839 204.307 84.5026 203.575 83.6415C204.497 82.9636 205.399 82.211 206.348 81.5263C217.053 73.777 240.247 57.2819 271.25 59.2277C276.145 59.5396 289.847 60.5362 303.115 68.0414C343.393 90.7942 341.698 151.88 341.583 154.632C340.498 244.619 339.197 310.878 338.648 332.315C338.276 352.826 332.442 372.866 321.746 390.37C326.864 390.472 342.16 390.106 354.011 379.095C361.285 372.316 364.35 364.716 366.695 356.899C369.62 347.145 371.082 333.974 371.082 317.386V140.788C371.367 134.923 372.668 85.4449 333.881 54.3938ZM200.999 57.9057C199.236 59.2616 197.607 60.5792 196.11 61.8583C195.931 60.7444 195.605 59.6592 195.141 58.6311L200.999 57.9057ZM162.849 95.1332L168.734 92.4755C167.473 94.4191 166.275 96.3784 165.141 98.3536C164.501 97.2006 163.737 96.1207 162.863 95.1332H162.849Z" fill="#C07124"/>
<path d="M322.824 399.489H321.597L305.746 399.17L313.997 385.611C323.855 369.46 329.224 350.97 329.549 332.051C330.153 308.268 331.434 241.358 332.478 154.49V154.219C332.478 153.642 334.471 96.184 298.634 75.9398C286.905 69.316 274.681 68.5499 270.667 68.299C251.569 67.0854 235.48 73.9262 224.219 80.5025C224.97 80.8867 225.702 81.3071 226.416 81.7636C234.674 87.1331 236.586 95.4044 238.098 102.055C239.311 107.35 241.576 117.222 235.718 126.496C232.623 131.482 227.851 135.201 222.26 136.984C218.182 138.22 213.848 138.349 209.704 137.357C210.572 140.069 211.168 142.74 211.738 145.229C213.094 151.33 215.629 162.693 208.945 173.134C205.434 178.723 200.044 182.875 193.744 184.843C188.937 186.259 183.831 186.317 178.992 185.012C191.704 191.582 197.914 205.351 200.233 210.524C208.694 229.318 210.348 255.908 193.989 269.867C187.975 275.006 180.375 277.82 171.412 278.24C157.853 278.918 144.625 272.321 134.123 259.745C127.344 251.609 122.008 240.213 121.133 228.321C114.571 233.141 106.577 236.457 97.8858 234.382C87.7569 231.928 79.8382 222.524 75.5873 207.9C70.4889 190.368 74.6516 167.025 85.7026 151.147C92.9366 140.747 102.428 134.625 112.435 133.9C114.041 133.787 115.653 133.81 117.255 133.967C114.148 129.713 112.294 124.673 111.906 119.418C110.93 107.066 118.517 98.2383 122.591 93.4925C127.71 87.5399 134.076 80.1364 145.1 79.1262C148.808 78.8087 152.542 79.2234 156.09 80.3466C155.791 79.8788 155.513 79.3974 155.249 78.9025C152.826 74.2186 152.154 68.8244 153.351 63.6888C155.514 54.1158 163.046 49.3903 167.093 46.8547C171.914 43.8377 178.49 39.7157 187.155 41.553C191.609 42.5542 195.672 44.838 198.843 48.1225C219.982 32.7325 242.959 24.6375 267.183 24.0477C302.03 23.146 325.787 36.197 339.583 47.2412C380.418 79.933 380.648 130.564 380.262 140.944V317.352C380.262 334.98 378.696 348.776 375.482 359.482C372.865 368.214 369.211 377.441 360.268 385.74C347.563 397.55 331.827 399.489 322.824 399.489ZM350.695 154.842C349.658 241.731 348.37 308.702 347.766 332.519C347.468 348.334 344.159 363.948 338.017 378.526C341.633 377.122 344.954 375.052 347.807 372.424C353.231 367.373 355.733 361.739 357.977 354.288C360.641 345.427 361.984 333.014 361.984 317.393V140.401C362.343 132.042 362.397 88.923 328.153 61.5125C316.722 52.3599 296.912 41.6072 267.583 42.3055C246.186 42.8276 225.792 50.3937 206.985 64.7939L206.551 65.1261C204.992 66.3329 203.453 67.5736 201.982 68.821L191.446 77.7432L183.71 87.3433C181.351 90.2586 179.114 93.3094 177.06 96.4146L176.382 97.4383L176.171 97.7569C180.575 92.3181 185.401 87.2355 190.605 82.5568L190.368 82.2856L197.277 76.9635L197.534 76.7601L204.721 71.1736L204.856 71.3499C217.223 62.6651 240.789 48.1496 271.8 50.1158C285.359 50.9632 297.386 54.3192 307.59 60.082C352.431 85.3975 350.858 150.388 350.695 154.842ZM150.578 203.317L150.259 203.521C150.048 203.645 149.871 203.82 149.744 204.029L148.93 205.955L147.371 207.311C144.75 209.566 142.637 212.353 141.174 215.487C136.245 226.335 141.303 239.975 148.09 248.091C154.876 256.206 162.72 260.464 170.544 260.07C175.378 259.847 179.283 258.491 182.151 256.043C191.399 248.145 188.571 229.06 183.602 218.036C181.568 213.528 176.192 201.568 166.707 199.921C163.317 199.331 159.527 200.036 155.432 202.009L153.968 202.687L152.354 202.843C151.908 202.887 151.469 202.982 151.046 203.128L150.578 203.317ZM114.462 152.09C114.218 152.09 113.974 152.09 113.737 152.09C107.784 152.524 102.977 158.191 100.645 161.581C92.6518 173.107 89.4653 190.429 93.0789 202.843C95.2891 210.456 98.8553 215.894 102.164 216.694C104.618 217.297 110.482 216.111 122.049 201.507C130.042 191.412 138.191 179.649 133.669 167.71C132.761 165.385 131.514 163.208 129.967 161.249L129.778 161.012C125.466 155.595 119.405 152.083 114.462 152.083V152.09ZM164.286 181.493C166.143 181.495 167.996 181.654 169.825 181.968C170.761 182.131 171.676 182.334 172.537 182.571C167.869 180.124 163.944 176.467 161.175 171.981C160.381 175.371 159.71 178.707 159.141 181.887C160.843 181.622 162.564 181.488 164.286 181.487V181.493ZM179.31 136.008L179.087 136.083C177.886 136.436 176.777 137.05 175.839 137.879C173.256 140.246 173.019 144.124 172.985 148.571C172.985 148.707 172.985 162.266 180.958 166.395C183.595 167.751 186.199 168.117 188.477 167.432C190.603 166.711 192.412 165.273 193.595 163.364C195.995 159.622 195.216 154.964 193.941 149.263C192.524 142.883 191.575 139.174 188.632 137.242C187.258 136.408 185.726 135.866 184.133 135.649C182.54 135.432 180.919 135.545 179.371 135.981L179.31 136.008ZM147.507 97.2756C147.246 97.2732 146.986 97.2845 146.727 97.3095C143.222 97.6281 140.625 100.448 136.381 105.404C132.578 109.838 129.69 113.581 130.042 118.015C130.173 120.262 131.087 122.392 132.625 124.035C134.313 125.71 136.774 126.625 139.751 126.659C142.057 126.661 144.311 125.969 146.219 124.672L163.364 113.927L157.168 102.781C156.846 102.209 156.464 101.672 156.029 101.181L155.778 100.916C153.601 98.6707 150.633 97.3643 147.507 97.2756ZM209.44 96.4756C208.779 96.7165 208.169 97.0799 207.643 97.5468C205.941 99.1197 205.806 102.028 205.799 105.377C205.799 105.486 205.948 115.927 211.724 118.869C213.281 119.775 215.13 120.038 216.877 119.601C218.296 119.084 219.494 118.092 220.267 116.794C221.941 114.144 221.304 110.564 220.267 106.157C219.04 100.787 218.301 98.2993 216.429 97.0857C215.41 96.5042 214.279 96.1434 213.111 96.0266C211.944 95.9098 210.764 96.0397 209.65 96.4078L209.44 96.4756ZM184.273 117.357C186.101 117.462 187.916 117.729 189.697 118.157C189.039 116.125 188.534 114.047 188.185 111.94C186.856 113.694 185.559 115.499 184.293 117.357H184.273ZM182.883 59.3701C181.615 59.3701 179.859 60.3735 176.781 62.3261C173.853 64.1566 171.582 65.7159 171.127 67.7499C170.89 68.6535 170.972 69.6111 171.358 70.4617C171.96 71.4158 172.907 72.1007 174.002 72.3736C174.615 72.5685 175.261 72.6355 175.9 72.5702L188.422 71.5668L187.127 63.3091C187.075 63.0124 186.986 62.7232 186.863 62.4481L186.782 62.2854C186.437 61.6025 185.955 60.9981 185.366 60.5104C184.777 60.0227 184.093 59.6622 183.358 59.4515C183.209 59.4097 183.057 59.3825 182.904 59.3701H182.883Z" fill="white"/>
<path d="M142.191 164.49C137.676 152.564 125.066 142.157 113.079 143.025C92.0619 144.544 77.1059 180.544 84.3263 205.399C85.1534 208.253 89.4381 223.026 100.015 225.562C112.279 228.531 124.516 213.08 129.167 207.175C135.9 198.7 148.923 182.259 142.191 164.49Z" fill="#79422B"/>
<path d="M341.59 154.605C340.505 244.592 339.203 310.851 338.654 332.288C338.285 352.808 332.449 372.858 321.746 390.37C326.864 390.472 342.16 390.106 354.01 379.095C361.285 372.316 364.35 364.716 366.695 356.899C369.62 347.145 371.082 333.974 371.082 317.386V140.788C371.339 134.923 372.641 85.4449 333.854 54.3938C306.735 32.6986 276.288 32.9766 267.359 33.1936C223.548 34.258 194.971 62.3464 186.415 70.7736C133.811 122.51 145.33 199.968 146.91 209.534C147.391 196.721 151.303 121.323 206.314 81.5059C217.019 73.7567 240.213 57.2616 271.216 59.2074C276.111 59.5193 289.813 60.5159 303.081 68.021C343.4 90.7738 341.705 151.852 341.59 154.605Z" fill="#C07124"/>
<path d="M191.107 176.151C195.324 174.803 198.927 172.004 201.277 168.253C205.914 161.012 204.097 152.856 202.843 147.235C201.304 140.32 199.812 133.676 193.65 129.608C186.694 125.032 176.097 125.303 169.69 131.167C163.968 136.408 163.914 143.995 163.88 148.517C163.88 150.063 164.008 167.886 176.761 174.497C178.076 175.154 184.117 178.266 191.107 176.151Z" fill="#79422B"/>
<path d="M170.978 269.176C173.249 269.067 181.378 268.681 188.063 262.972C201.561 251.447 198.002 227.819 191.914 214.294C189.453 208.822 182.517 193.419 168.266 190.944C157.927 189.141 148.91 195.012 146.002 196.951C143.737 198.429 136.808 203.053 132.883 211.711C126.056 226.694 132.727 243.921 141.1 253.935C143.581 256.877 154.497 269.962 170.978 269.176Z" fill="#79422B"/>
<path d="M134.428 156.964C134.231 156.965 134.041 156.895 133.891 156.767C133.741 156.639 133.641 156.462 133.61 156.268C133.579 156.073 133.619 155.874 133.721 155.706C133.824 155.538 133.983 155.412 134.171 155.351C135.859 154.795 137.561 154.28 139.249 153.812C142.083 153.025 144.984 152.341 147.866 151.778C147.974 151.758 148.085 151.76 148.192 151.784C148.3 151.808 148.402 151.852 148.492 151.915C148.582 151.978 148.658 152.058 148.717 152.151C148.776 152.244 148.816 152.347 148.835 152.456C148.856 152.564 148.854 152.675 148.831 152.783C148.808 152.891 148.764 152.993 148.7 153.083C148.637 153.174 148.557 153.25 148.463 153.309C148.37 153.368 148.266 153.407 148.157 153.425C145.323 153.974 142.462 154.646 139.669 155.419C138.008 155.88 136.327 156.388 134.666 156.937C134.588 156.958 134.508 156.967 134.428 156.964Z" fill="#C07124"/>
<path d="M128.225 152.32C125.689 154.09 125.242 155.419 125.31 156.307C125.398 157.547 125.92 158.469 127.256 160.3C128.18 161.568 129.283 162.697 130.53 163.649C132.117 164.869 132.917 165.392 134.028 165.486C134.716 165.483 135.391 165.304 135.991 164.969C136.591 164.633 137.096 164.151 137.459 163.568C139.018 161.147 137.283 157.52 135.717 155.663C133.045 152.503 129.045 152.334 128.225 152.32Z" fill="#C07124"/>
<path d="M146.639 195.127C150.483 193.283 155.453 193.31 156.225 194.965C156.395 195.324 156.32 196.043 156.164 197.473C156.081 198.226 155.899 198.965 155.622 199.67C155.548 199.866 155.45 200.053 155.33 200.226C154.566 201.176 153.481 201.815 152.28 202.022C152.09 202.063 152.151 202.022 151.866 202.09C150.878 202.271 149.918 202.581 149.012 203.012C147.432 203.826 146.557 205.134 145.703 205.046C145.554 205.035 145.406 205.007 145.262 204.965C144.581 204.522 143.845 204.169 143.073 203.914C142.008 203.602 141.52 203.704 141.161 203.236C140.673 202.633 140.93 201.67 141.059 201.202C141.521 199.86 142.256 198.628 143.216 197.583C144.176 196.538 145.341 195.702 146.639 195.127Z" fill="#C07124"/>
<path d="M179.27 132.917C179.107 132.917 178.948 132.869 178.812 132.78C178.676 132.691 178.568 132.564 178.504 132.415C175.973 126.51 172.56 121.024 168.382 116.144C168.308 116.062 168.251 115.966 168.215 115.862C168.179 115.758 168.164 115.647 168.171 115.537C168.178 115.427 168.207 115.32 168.256 115.221C168.305 115.123 168.374 115.035 168.457 114.963C168.541 114.891 168.638 114.837 168.743 114.803C168.848 114.769 168.958 114.757 169.068 114.766C169.178 114.776 169.285 114.807 169.382 114.859C169.48 114.91 169.566 114.98 169.636 115.066C173.937 120.069 177.449 125.7 180.049 131.764C180.092 131.864 180.114 131.972 180.115 132.08C180.116 132.189 180.095 132.297 180.054 132.398C180.013 132.499 179.953 132.59 179.876 132.668C179.8 132.745 179.709 132.807 179.609 132.849C179.503 132.898 179.387 132.921 179.27 132.917Z" fill="#C07124"/>
<path d="M184.002 129.988C184.368 130.95 183.195 132.442 182.212 133.174C181.664 133.559 181.051 133.842 180.402 134.008C179.629 134.252 179.378 134.205 176.632 134.428C176.033 134.552 175.415 134.552 174.815 134.428C174.381 134.301 173.991 134.055 173.688 133.718C173.385 133.382 173.182 132.968 173.1 132.523C173.032 130.984 175.948 129.71 177.751 129.262C180.049 128.679 183.48 128.639 184.002 129.988Z" fill="#C07124"/>
<path d="M126.212 130.489C123.133 127.312 121.279 123.147 120.978 118.733C120.3 110.164 125.723 103.818 129.493 99.4654C134.11 94.0959 138.564 88.9094 145.913 88.2314C154.212 87.4721 163.432 92.7128 166.314 100.896C168.897 108.218 165.364 114.93 163.263 118.937C162.544 120.293 154.022 135.961 139.649 135.771C138.178 135.757 131.412 135.662 126.212 130.489Z" fill="#79422B"/>
<path d="M156.639 98.7739C156.503 98.7716 156.37 98.7357 156.252 98.6694C156.134 98.6032 156.034 98.5086 155.961 98.3942C155.901 98.303 155.861 98.201 155.841 98.094C155.821 97.987 155.822 97.8771 155.845 97.7707C155.868 97.6642 155.911 97.5633 155.973 97.4737C156.035 97.3841 156.114 97.3075 156.205 97.2484C161.741 93.6526 167.792 90.9206 174.151 89.1467C174.255 89.1157 174.365 89.106 174.474 89.1179C174.582 89.1299 174.687 89.1634 174.782 89.2164C174.878 89.2695 174.961 89.341 175.029 89.4268C175.096 89.5126 175.146 89.611 175.175 89.7162C175.204 89.8212 175.213 89.9312 175.2 90.0396C175.188 90.1481 175.153 90.2529 175.1 90.3481C175.046 90.4433 174.974 90.5269 174.888 90.5942C174.802 90.6614 174.704 90.7109 174.598 90.7399C171.193 91.6927 167.874 92.9263 164.673 94.4281C162.058 95.6572 159.53 97.0639 157.107 98.6383C156.967 98.7276 156.804 98.7746 156.639 98.7739Z" fill="#C07124"/>
<path d="M153.886 93.5603C153.039 94.1569 153.208 96.0484 153.588 97.201C153.83 97.8271 154.182 98.4055 154.625 98.9095C155.134 99.5468 155.371 99.6485 157.527 101.364C158.49 102.13 158.652 102.252 159.032 102.374C159.464 102.511 159.925 102.525 160.365 102.415C160.804 102.305 161.204 102.075 161.52 101.75C162.435 100.503 160.72 97.8247 159.486 96.4484C157.879 94.6654 155.066 92.7264 153.886 93.5603Z" fill="#C07124"/>
<path d="M219.582 128.306C223.091 127.157 226.081 124.803 228.023 121.662C231.853 115.594 230.294 108.781 229.223 104.123C227.867 98.3603 226.619 92.7942 221.46 89.445C215.629 85.6551 206.782 85.9399 201.467 90.8619C196.721 95.2688 196.721 101.601 196.721 105.371C196.721 106.666 196.931 121.54 207.616 126.991C208.7 127.547 213.731 130.096 219.582 128.306Z" fill="#79422B"/>
<path d="M209.758 93.2687C209.612 93.2692 209.468 93.2304 209.342 93.1565C209.215 93.0826 209.111 92.9762 209.039 92.8484C207.864 90.7489 206.546 88.7328 205.094 86.8144C203.322 84.4635 201.356 82.2659 199.216 80.2449C199.057 80.0933 198.964 79.885 198.957 79.6654C198.951 79.4458 199.032 79.2325 199.182 79.072C199.338 78.9176 199.549 78.8309 199.768 78.8309C199.988 78.8309 200.198 78.9176 200.355 79.072C202.563 81.1561 204.591 83.4242 206.416 85.8517C207.913 87.8326 209.272 89.9144 210.483 92.0823C210.59 92.2738 210.617 92.4999 210.557 92.711C210.497 92.922 210.356 93.1007 210.165 93.2077C210.036 93.2606 209.897 93.2816 209.758 93.2687Z" fill="#C07124"/>
<path d="M213.5 90.2789C213.894 91.045 213.053 92.3874 212.3 93.0789C211.882 93.4477 211.399 93.7372 210.877 93.9331C210.253 94.2043 210.036 94.1908 207.785 94.6111C207.297 94.7642 206.783 94.8195 206.273 94.7738C205.901 94.7071 205.554 94.5379 205.273 94.2852C204.992 94.0325 204.786 93.7063 204.68 93.3433C204.49 92.0687 206.795 90.7602 208.253 90.2246C210.124 89.5399 212.951 89.2009 213.5 90.2789Z" fill="#C07124"/>
<path d="M163.29 74.6787C161.891 71.9143 161.516 68.7438 162.232 65.7295C163.588 59.8515 168.51 56.7463 171.927 54.604C176.131 51.9734 180.185 49.4242 185.243 50.5022C190.951 51.7158 196.029 57.1328 196.26 63.2074C196.47 68.6312 192.714 72.4007 190.477 74.6381C189.71 75.4109 180.761 84.1297 171.181 81.0042C170.205 80.6856 165.697 79.2483 163.29 74.6787Z" fill="#79422B"/>
<path d="M190.402 60.0481C190.222 60.0474 190.047 59.9881 189.904 59.8793C189.761 59.7704 189.657 59.6178 189.609 59.4447C189.579 59.3405 189.57 59.2315 189.582 59.1238C189.595 59.0161 189.629 58.912 189.681 58.8175C189.734 58.7229 189.806 58.6398 189.891 58.5729C189.976 58.506 190.074 58.4567 190.178 58.4277C192.18 57.8583 194.219 57.4279 196.28 57.1396C198.809 56.7894 201.362 56.6488 203.914 56.7192C204.023 56.7219 204.131 56.7461 204.231 56.7905C204.33 56.835 204.42 56.8988 204.495 56.9782C204.57 57.0576 204.629 57.1511 204.668 57.2533C204.706 57.3555 204.724 57.4643 204.721 57.5735C204.721 57.6833 204.699 57.7919 204.655 57.8927C204.612 57.9935 204.548 58.0842 204.468 58.1592C204.388 58.2343 204.293 58.292 204.189 58.3289C204.086 58.3657 203.976 58.3809 203.866 58.3735C201.405 58.3023 198.942 58.4384 196.504 58.7803C194.51 59.0594 192.537 59.4739 190.599 60.021C190.534 60.0377 190.468 60.0468 190.402 60.0481Z" fill="#C07124"/>
<path d="M189.466 55.7158C188.788 55.9396 188.483 57.2413 188.517 58.0955C188.548 58.5642 188.663 59.0235 188.856 59.4515C189.066 59.9803 189.202 60.1294 190.287 61.6888C190.775 62.4006 190.856 62.5227 191.087 62.6786C191.346 62.8601 191.652 62.9652 191.968 62.982C192.284 62.9988 192.599 62.9266 192.877 62.7735C193.751 62.1362 193.161 59.9871 192.612 58.8074C191.907 57.2887 190.429 55.404 189.466 55.7158Z" fill="#C07124"/>
</g>
<defs>
<clipPath id="clip0_23_31178">
<path d="M0 -1.52588e-05H331V186C331 266.081 266.081 331 186 331H0V-1.52588e-05Z" fill="white"/>
</clipPath>
</defs>
</svg>
