<svg width="241" height="126" viewBox="0 0 241 126" fill="none" xmlns="http://www.w3.org/2000/svg">
<path d="M52.7385 35.783C51.5288 32.5935 48.1566 29.8087 44.9496 30.0393C39.293 30.4483 35.3203 40.0821 37.2522 46.7309C37.4741 47.4924 38.6228 51.439 41.4512 52.1265C44.7321 52.9184 48.0086 48.7847 49.2835 47.2052C51.0545 44.9382 54.5399 40.539 52.7385 35.783Z" fill="#79422B"/>
<path d="M82.2271 76.0717C79.7933 75.9759 74.8038 76.6054 67.2587 77.9601C66.5581 78.1037 65.1962 78.3561 63.1815 78.7129C57.3798 79.6992 52.3859 80.436 48.2 80.9234C44.0749 81.407 39.9186 81.5699 35.7684 81.4107C26.9816 81.0626 20.4155 79.1684 16.07 75.7279C14.1078 74.2224 12.5166 72.2873 11.4185 70.0712C10.256 67.5786 9.72832 64.837 9.8825 62.091C10.1305 52.4224 17.184 42.7843 25.9823 37.9108C27.6752 36.9753 29.4525 36.2016 31.2909 35.6003C27.8098 35.7613 20.6345 36.6054 13.951 41.5485C8.67283 45.4647 5.81403 50.3903 4.3781 52.7922C1.6803 57.2678 0.181659 62.3632 0.0268088 67.5867C-0.298088 75.7642 2.33009 82.4666 7.91135 87.694C13.4926 92.9213 21.6339 95.7482 32.3352 96.1747C37.2609 96.3911 42.196 96.1068 47.0643 95.3262C51.755 94.5516 57.1347 93.4145 63.2033 91.9147L69.7911 90.4788L73.1155 92.3107C74.8175 93.4314 76.6159 94.3983 78.4894 95.2C80.0995 95.8416 81.8089 96.1979 83.5412 96.253C84.7964 96.3163 86.0516 96.1305 87.2345 95.7063C88.4175 95.2821 89.5048 94.6279 90.4337 93.7814C91.4067 92.9336 92.1899 91.89 92.732 90.7188C93.2741 89.5476 93.5629 88.2752 93.5797 86.9847C93.6689 85.6068 93.4748 84.2252 93.0093 82.9253C92.5438 81.6253 91.8168 80.4346 90.8732 79.4265C88.9354 77.3263 86.0534 76.208 82.2271 76.0717Z" fill="#79422B"/>
<path d="M108.091 5.66773C100.99 -0.0150581 92.5527 -0.0542192 90.2988 0.0110502C88.2908 0.0518432 86.2926 0.304161 84.3375 0.763824C73.6986 1.75592 66.7539 8.59616 64.5913 10.7065C50.5149 24.548 53.6 45.2776 54.022 47.8361C54.1482 44.4073 55.1969 24.2347 69.9173 13.5784C72.7805 11.5028 78.9898 7.09061 87.2834 7.61276C90.2666 7.74896 93.1812 8.55344 95.8119 9.96681C106.594 16.0586 106.138 32.4021 106.107 33.1418C105.82 57.2175 105.467 74.9491 105.324 80.6841C105.226 86.1743 103.667 91.5394 100.807 96.2269C102.347 96.2591 103.882 96.0387 105.35 95.5742C107.03 95.5742 110.637 95.213 113.5 92.5544C115.449 90.7486 116.267 88.7078 116.894 86.6149C117.677 84.0041 118.069 80.4795 118.069 76.0412V28.7862C118.121 27.2153 118.473 13.9787 108.091 5.66773Z" fill="#C07124"/>
<path d="M125.353 76.6591C125.692 78.7086 127.964 78.7521 129.8 81.4934C131.636 84.2347 131.54 87.2676 131.301 89.7609C131.097 91.893 130.118 100.126 123.273 105.752C118.878 109.363 113.242 111.169 106.364 111.169C103.246 111.132 100.139 110.814 97.0782 110.221C93.7371 109.621 90.451 108.748 87.2529 107.61C87.7425 109.895 88.6259 112.077 89.8637 114.059C90.669 115.331 91.6101 116.513 92.6703 117.583C95.0428 120.012 97.8273 122.001 100.894 123.457C103.978 124.992 107.375 125.796 110.82 125.807C115.258 125.807 119.413 124.393 123.286 121.564C127.159 118.736 130.422 114.82 133.076 109.816C135.731 104.812 137.493 99.0901 138.363 92.6501C141.578 93.6404 144.917 94.1678 148.28 94.2166H148.358C155.111 94.1963 160.655 91.1504 164.989 85.0789C166.53 88.4439 169.027 91.2813 172.168 93.2376C175.452 95.2924 179.261 96.3505 183.134 96.2835C186.561 96.3246 189.922 95.3478 192.794 93.4769C195.665 91.6058 197.754 88.8863 199.059 85.3182C203.324 91.236 208.848 94.1948 215.634 94.1948C222.596 94.1948 228.294 92.1062 232.73 87.929C235.423 85.2032 237.5 81.9314 238.822 78.3344C240.315 74.2595 241.052 69.9464 240.997 65.6068C240.997 59.9502 239.953 55.316 237.864 51.7045C235.776 48.0929 232.904 46.2871 229.249 46.2871C228.373 46.2752 227.505 46.4428 226.696 46.7795C225.888 47.1163 225.157 47.6151 224.549 48.2452C223.938 48.8125 223.449 49.4989 223.112 50.2621C222.775 51.0253 222.598 51.8493 222.591 52.6835C222.591 56.0775 224.593 58.5577 228.596 60.1242C229.934 60.6466 231.171 61.3975 232.251 62.3434C232.549 63.4046 232.681 64.5054 232.643 65.6068C232.643 69.6971 231.163 73.004 228.204 75.5278C225.246 78.0515 221.503 79.3134 216.978 79.3134C213.797 79.3691 210.66 78.5568 207.906 76.9637C205.251 75.3973 203.315 72.7865 202.097 69.1314C198.355 57.9921 192.48 52.4224 184.474 52.4224C180.036 52.4224 175.924 54.2282 172.138 57.8398C168.38 61.3704 165.675 65.8741 164.323 70.8502C162.724 73.3197 160.609 75.413 158.122 76.9855C155.558 78.5759 152.589 79.3918 149.572 79.3352C145.134 79.3352 141.306 78.5519 138.089 76.9855C137.371 75.1185 136.26 73.4281 134.83 72.0294C133.764 70.9894 133.02 70.2888 131.928 70.093C128.851 69.5883 124.861 73.7133 125.353 76.6591ZM191.493 80.1097C189.665 81.067 187.141 81.5456 183.921 81.5456C181.74 81.5267 179.569 81.2343 177.46 80.6754C175.547 80.2193 173.687 79.5629 171.912 78.7173C170.432 77.9776 169.693 77.3466 169.693 76.8245C169.693 76.0412 170.345 74.8011 171.651 73.1041C173.116 71.2677 174.908 69.7186 176.938 68.5353C179.202 67.1739 181.802 66.4731 184.443 66.5119C186.731 66.4641 188.965 67.2012 190.775 68.6005C192.559 69.9929 193.842 72.1251 194.625 74.9969C194.353 77.454 193.303 79.1582 191.475 80.1097H191.493Z" fill="#79422B"/>
<path d="M65.8272 38.9029C66.955 38.5414 67.9185 37.7922 68.5467 36.7882C69.7868 34.8518 69.2995 32.6718 68.9818 31.1707C68.5728 29.317 68.1725 27.533 66.5234 26.4451C64.661 25.2224 61.824 25.2964 60.1139 26.8803C58.5779 28.2814 58.5649 30.3134 58.5562 31.5231C58.5562 31.9582 58.591 36.7055 62.0068 38.4852C63.1808 39.1051 64.5469 39.2544 65.8272 38.9029Z" fill="#79422B"/>
<path d="M60.4402 63.7967C62.1054 63.7621 63.7128 63.1794 65.0134 62.1388C68.625 59.0538 67.672 52.7313 66.0446 49.1111C65.3832 47.6447 63.5296 43.524 59.7135 42.8626C56.9505 42.3796 54.5355 43.9591 53.7566 44.4682C52.2385 45.4295 51.0216 46.7987 50.2451 48.4192C48.4219 52.4311 50.2059 57.0391 52.4468 59.7326C53.1082 60.5114 56.0279 64.0055 60.4402 63.7967Z" fill="#79422B"/>
<path d="M50.6628 33.7641C50.6051 33.7733 50.5461 33.7592 50.4988 33.7249C50.4515 33.6907 50.4197 33.639 50.4105 33.5813C50.4013 33.5236 50.4153 33.4646 50.4496 33.4173C50.4839 33.3699 50.5355 33.3382 50.5932 33.3289C51.0283 33.181 51.5026 33.0417 51.9508 32.9155C52.7079 32.7067 53.4825 32.5239 54.257 32.376C54.285 32.3703 54.3139 32.3701 54.3419 32.3755C54.37 32.381 54.3967 32.3919 54.4206 32.4076C54.4444 32.4234 54.4649 32.4437 54.4808 32.4674C54.4968 32.4911 54.508 32.5177 54.5137 32.5457C54.524 32.6027 54.5115 32.6615 54.479 32.7095C54.4465 32.7575 54.3965 32.7908 54.3397 32.8024C53.5782 32.9504 52.8124 33.1288 52.0683 33.3376C51.6332 33.4595 51.172 33.5944 50.7281 33.7423C50.7081 33.7539 50.6859 33.7613 50.6628 33.7641Z" fill="#C07124"/>
<path d="M49.0007 32.5283C48.3219 33.0026 48.2044 33.355 48.2218 33.5943C48.2828 33.9951 48.4632 34.3682 48.7396 34.6647C48.9872 34.9944 49.2802 35.2873 49.6098 35.535C49.8626 35.7935 50.1896 35.9669 50.5454 36.0311C50.7298 36.0296 50.9107 35.9814 51.0713 35.8908C51.2319 35.8002 51.3669 35.6703 51.4635 35.5132C51.8986 34.8693 51.4157 33.8946 50.9979 33.3985C50.7415 33.1255 50.4322 32.9075 50.0888 32.7579C49.7455 32.6083 49.3752 32.5301 49.0007 32.5283Z" fill="#C07124"/>
<path d="M53.9262 43.9809C54.9575 43.4893 56.2847 43.4936 56.4935 43.9374C56.5375 44.1601 56.5375 44.3892 56.4935 44.6119C56.4699 44.8128 56.4217 45.0101 56.3499 45.1993C56.328 45.2507 56.3018 45.3002 56.2716 45.3473C56.0661 45.6008 55.7753 45.7709 55.4535 45.8259L55.3448 45.8477C55.0796 45.8937 54.8219 45.9757 54.5789 46.0913C54.1438 46.3089 53.9219 46.6613 53.7087 46.6439C53.6689 46.6406 53.6295 46.6333 53.5912 46.6222C53.4092 46.5015 53.2116 46.4063 53.0038 46.3394C52.7209 46.2567 52.5687 46.2828 52.4903 46.161C52.4458 46.0795 52.4203 45.9891 52.4158 45.8963C52.4112 45.8036 52.4278 45.7111 52.4642 45.6257C52.5822 45.266 52.7729 44.9344 53.0244 44.6515C53.2759 44.3686 53.5829 44.1403 53.9262 43.9809Z" fill="#C07124"/>
<path d="M62.6593 27.3372C62.6164 27.337 62.5744 27.324 62.5388 27.3C62.5032 27.276 62.4755 27.242 62.4591 27.2023C61.7811 25.623 60.867 24.1558 59.7483 22.851C59.7108 22.8071 59.6922 22.7502 59.6967 22.6927C59.7012 22.6351 59.7284 22.5817 59.7722 22.5442C59.8161 22.5067 59.873 22.4882 59.9306 22.4927C59.9881 22.4972 60.0415 22.5243 60.079 22.5682C60.7097 23.3053 61.2774 24.0943 61.776 24.9266C62.1844 25.6078 62.5464 26.3157 62.8595 27.0456C62.8709 27.0722 62.8769 27.1007 62.8771 27.1296C62.8774 27.1585 62.8718 27.1871 62.8609 27.2139C62.85 27.2406 62.8338 27.2649 62.8134 27.2853C62.793 27.3057 62.7687 27.3219 62.742 27.3328C62.7148 27.3383 62.6869 27.3398 62.6593 27.3372Z" fill="#C07124"/>
<path d="M63.9256 26.5496C64.0256 26.8064 63.708 27.2067 63.4469 27.4199C63.3011 27.5242 63.1374 27.6009 62.9639 27.6462C62.6325 27.7199 62.294 27.7564 61.9545 27.7549C61.7939 27.7895 61.6277 27.7895 61.4671 27.7549C61.3509 27.7205 61.2465 27.6547 61.1652 27.565C61.0839 27.4752 61.0287 27.3648 61.0059 27.2458C61.0059 26.8368 61.7717 26.4974 62.2547 26.3756C62.8726 26.2015 63.7863 26.1885 63.9256 26.5496Z" fill="#C07124"/>
<path d="M48.461 26.6845C47.6364 25.8347 47.1399 24.7199 47.0598 23.5385C46.8771 21.2454 48.3348 19.5528 49.3399 18.3823C50.5757 16.9463 51.768 15.5583 53.7348 15.3799C55.9539 15.1753 58.4211 16.5765 59.1913 18.7652C59.8831 20.7276 58.9389 22.5247 58.3776 23.5951C58.1818 23.9606 55.9017 28.1509 52.0552 28.0987C50.7196 28.1085 49.4318 27.6018 48.461 26.6845Z" fill="#79422B"/>
<path d="M56.6024 18.1995C56.5661 18.199 56.5304 18.1897 56.4986 18.1722C56.4667 18.1548 56.4396 18.1298 56.4196 18.0994C56.3886 18.0509 56.378 17.9921 56.3902 17.9358C56.4025 17.8795 56.4365 17.8304 56.4849 17.7992C57.9602 16.8343 59.5744 16.1006 61.2714 15.6235C61.2985 15.6156 61.327 15.6131 61.3551 15.6163C61.3832 15.6194 61.4104 15.6281 61.4351 15.6419C61.4598 15.6557 61.4815 15.6742 61.499 15.6965C61.5164 15.7187 61.5293 15.7442 61.5368 15.7715C61.5529 15.8269 61.5464 15.8864 61.5187 15.937C61.4909 15.9876 61.4442 16.0251 61.3888 16.0412C59.7296 16.5036 58.1507 17.2168 56.7068 18.156C56.6759 18.1783 56.6401 18.1932 56.6024 18.1995Z" fill="#C07124"/>
<path d="M55.8669 16.8027C55.6406 16.9637 55.6798 17.4685 55.7886 17.7774C55.8551 17.9377 55.9494 18.085 56.0671 18.2126C56.2998 18.46 56.5596 18.6804 56.8416 18.8696C57.0984 19.0741 57.1418 19.1046 57.2463 19.1394C57.3621 19.1753 57.4856 19.1784 57.6031 19.1485C57.7206 19.1185 57.8275 19.0567 57.912 18.9697C58.1557 18.639 57.6945 17.921 57.3638 17.5512C56.9243 17.0986 56.1845 16.5808 55.8669 16.8027Z" fill="#C07124"/>
<path d="M73.4593 26.1014C74.3984 25.7931 75.1982 25.1627 75.7176 24.3217C76.7445 22.6987 76.3268 20.8842 76.0396 19.631C75.6828 18.0863 75.3434 16.5851 73.9597 15.7148C73.1432 15.2032 72.1852 14.9641 71.2241 15.0322C70.2629 15.1002 69.3482 15.4718 68.6119 16.0934C67.3413 17.2726 67.3413 18.9696 67.3413 19.9791C67.3413 20.3229 67.3936 24.3043 70.2567 25.762C71.2415 26.2805 72.3876 26.402 73.4593 26.1014Z" fill="#79422B"/>
<path d="M70.818 16.7244C70.7791 16.7232 70.7412 16.7122 70.7077 16.6924C70.6743 16.6726 70.6463 16.6447 70.6265 16.6112C70.3138 16.0491 69.962 15.5096 69.5735 14.9969C69.098 14.3737 68.5711 13.7915 67.9983 13.2564C67.9775 13.2367 67.9607 13.213 67.949 13.1869C67.9373 13.1607 67.9308 13.1324 67.93 13.1037C67.9292 13.075 67.9341 13.0465 67.9443 13.0197C67.9545 12.9928 67.97 12.9683 67.9897 12.9475C68.0094 12.9266 68.033 12.9098 68.0592 12.8981C68.0854 12.8864 68.1136 12.8799 68.1423 12.8791C68.171 12.8783 68.1995 12.8832 68.2264 12.8934C68.2532 12.9036 68.2777 12.919 68.2986 12.9387C68.8881 13.4969 69.4309 14.1022 69.9216 14.7489C70.3192 15.2808 70.6825 15.8374 71.0094 16.4154C71.0376 16.4657 71.0447 16.525 71.0293 16.5805C71.0138 16.6359 70.9769 16.683 70.9268 16.7113C70.8924 16.7255 70.8548 16.73 70.818 16.7244Z" fill="#C07124"/>
<path d="M71.8189 15.9237C71.9234 16.1326 71.6971 16.4894 71.4969 16.6765C71.3852 16.7738 71.257 16.8505 71.1184 16.9028C70.8492 16.995 70.5703 17.0564 70.2873 17.0855C70.1583 17.1278 70.022 17.1427 69.887 17.129C69.7857 17.1127 69.6911 17.0681 69.6141 17.0004C69.5371 16.9326 69.4809 16.8445 69.4518 16.7461C69.3996 16.4067 70.0175 16.0543 70.4047 15.915C70.9138 15.7279 71.671 15.6365 71.8189 15.9237Z" fill="#C07124"/>
<path d="M60.5621 11.7508C60.1844 11.0128 60.0826 10.1641 60.2749 9.35763C60.6317 7.78246 61.9545 6.95137 62.8857 6.38135C64.0126 5.67644 65.0961 4.99328 66.4494 5.28047C67.2385 5.46137 67.9496 5.88855 68.4799 6.50023C69.0103 7.11191 69.3324 7.87641 69.3996 8.68318C69.4562 10.1365 68.451 11.1417 67.8505 11.7291C67.646 11.9336 65.2397 14.2615 62.6899 13.4304C61.7905 13.166 61.0281 12.5642 60.5621 11.7508Z" fill="#79422B"/>
<path d="M68.2377 7.8347C68.1901 7.83443 68.1438 7.81854 68.1061 7.78945C68.0684 7.76037 68.0413 7.7197 68.0289 7.6737C68.0209 7.64656 68.0184 7.61811 68.0216 7.59001C68.0247 7.5619 68.0335 7.53471 68.0472 7.51001C68.061 7.48531 68.0796 7.46359 68.1018 7.44612C68.124 7.42866 68.1495 7.41579 68.1768 7.40827C69.3738 7.07262 70.6157 6.92581 71.858 6.97314C71.8867 6.97312 71.9152 6.97891 71.9416 6.99016C71.9681 7.00142 71.992 7.01791 72.0119 7.03864C72.0318 7.05937 72.0473 7.08391 72.0575 7.11079C72.0677 7.13767 72.0724 7.16634 72.0712 7.19506C72.0679 7.25278 72.0426 7.30703 72.0005 7.34668C71.9584 7.38633 71.9028 7.40837 71.845 7.40827C71.1876 7.38856 70.5297 7.42349 69.8782 7.5127C69.3434 7.58915 68.8142 7.70108 68.2943 7.84775L68.2377 7.8347Z" fill="#C07124"/>
<path d="M67.9984 6.67726C67.8156 6.73817 67.7373 7.08628 67.746 7.31255C67.7531 7.43767 67.7841 7.56027 67.8374 7.6737C67.9453 7.88971 68.0798 8.09143 68.2377 8.27418C68.3683 8.46564 68.39 8.4961 68.4509 8.53961C68.5194 8.59035 68.6012 8.61988 68.6863 8.62452C68.7714 8.62916 68.856 8.60871 68.9296 8.56572C69.1602 8.39602 69.0036 7.82165 68.86 7.504C68.6729 7.09933 68.2377 6.59458 67.9984 6.67726Z" fill="#C07124"/>
<path d="M220.607 30.8182C219.397 27.6287 216.025 24.8439 212.818 25.0745C207.161 25.4835 203.189 35.1173 205.121 41.766C205.343 42.5275 206.491 46.4741 209.32 47.1616C212.605 47.9536 215.877 43.8199 217.152 42.2403C218.923 39.9559 222.408 35.5698 220.607 30.8182Z" fill="#79422B"/>
<path d="M233.587 44.8338C235.252 44.8009 236.86 44.218 238.16 43.1759C241.772 40.0952 240.819 33.7684 239.187 30.1481C238.53 28.6861 236.676 24.5654 232.86 23.8997C230.093 23.421 227.682 25.0006 226.903 25.5097C225.384 26.4697 224.167 27.8393 223.392 29.4606C221.564 33.4682 223.348 38.0762 225.589 40.774C226.272 41.5529 229.192 45.047 233.587 44.8338Z" fill="#79422B"/>
</svg>
