<svg width="218" height="72" viewBox="0 0 218 72" fill="none" xmlns="http://www.w3.org/2000/svg">
<g clip-path="url(#clip0_5431_5319)">
<path d="M206.663 0H11.3368C5.07552 0 -0.000244141 5.07709 -0.000244141 11.34V60.66C-0.000244141 66.9229 5.07552 72 11.3368 72H206.663C212.924 72 218 66.9229 218 60.66V11.34C218 5.07709 212.924 0 206.663 0Z" fill="black"/>
<path d="M66.0566 17.625V27.7711H69.7189C72.7416 27.7711 74.4919 25.9079 74.4919 22.6664C74.4919 19.4743 72.7275 17.625 69.7189 17.625H66.0566ZM67.6312 19.0594H69.5432C71.6451 19.0594 72.8892 20.3954 72.8892 22.6875C72.8892 25.0149 71.6661 26.3368 69.5432 26.3368H67.6312V19.0594Z" fill="white"/>
<path d="M79.6713 27.9172C81.9066 27.9172 83.2773 26.4195 83.2773 23.9375C83.2773 21.4695 81.8996 19.9648 79.6713 19.9648C77.4359 19.9648 76.0581 21.4695 76.0581 23.9375C76.0581 26.4195 77.4288 27.9172 79.6713 27.9172ZM79.6713 26.5742C78.3568 26.5742 77.6187 25.611 77.6187 23.9375C77.6187 22.2781 78.3568 21.3078 79.6713 21.3078C80.9787 21.3078 81.7238 22.2781 81.7238 23.9375C81.7238 25.6039 80.9787 26.5742 79.6713 26.5742Z" fill="white"/>
<path d="M94.7704 20.1133H93.2591L91.8954 25.9562H91.7759L90.2013 20.1133H88.7532L87.1787 25.9562H87.0662L85.6955 20.1133H84.1631L86.2718 27.7703H87.8254L89.3999 22.1312H89.5194L91.101 27.7703H92.6686L94.7704 20.1133Z" fill="white"/>
<path d="M96.3315 27.7695H97.8428V23.2906C97.8428 22.0953 98.5528 21.35 99.6704 21.35C100.788 21.35 101.322 21.9617 101.322 23.1922V27.7695H102.834V22.8125C102.834 20.9915 101.892 19.9648 100.184 19.9648C99.0308 19.9648 98.2716 20.4781 97.8991 21.3289H97.7866V20.1125H96.3315V27.7695Z" fill="white"/>
<path d="M105.034 27.7703H106.544V17.125H105.034V27.7703Z" fill="white"/>
<path d="M112.049 27.9172C114.285 27.9172 115.655 26.4195 115.655 23.9375C115.655 21.4695 114.277 19.9648 112.049 19.9648C109.813 19.9648 108.436 21.4695 108.436 23.9375C108.436 26.4195 109.806 27.9172 112.049 27.9172ZM112.049 26.5742C110.735 26.5742 109.997 25.611 109.997 23.9375C109.997 22.2781 110.735 21.3078 112.049 21.3078C113.356 21.3078 114.101 22.2781 114.101 23.9375C114.101 25.6039 113.356 26.5742 112.049 26.5742Z" fill="white"/>
<path d="M119.978 26.6234C119.156 26.6234 118.558 26.2227 118.558 25.5336C118.558 24.8586 119.037 24.5 120.091 24.4297L121.96 24.3101V24.95C121.96 25.8992 121.117 26.6234 119.978 26.6234ZM119.592 27.8961C120.596 27.8961 121.433 27.4601 121.89 26.6938H122.009V27.7695H123.464V22.5383C123.464 20.9211 122.383 19.9648 120.463 19.9648C118.727 19.9648 117.49 20.8086 117.335 22.1234H118.797C118.966 21.5821 119.55 21.2727 120.393 21.2727C121.426 21.2727 121.96 21.7297 121.96 22.5383V23.1992L119.887 23.3188C118.066 23.4312 117.04 24.2258 117.04 25.6039C117.04 27.0032 118.115 27.8961 119.592 27.8961Z" fill="white"/>
<path d="M128.414 27.8968C129.468 27.8968 130.36 27.3977 130.818 26.5609H130.937V27.7703H132.385V17.125H130.873V21.3297H130.761C130.347 20.486 129.461 19.9867 128.414 19.9867C126.481 19.9867 125.236 21.5196 125.236 23.9383C125.236 26.364 126.466 27.8968 128.414 27.8968ZM128.843 21.3438C130.107 21.3438 130.902 22.3492 130.902 23.9453C130.902 25.5484 130.115 26.5398 128.843 26.5398C127.563 26.5398 126.797 25.5625 126.797 23.9383C126.797 22.3281 127.571 21.3438 128.843 21.3438Z" fill="white"/>
<path d="M141.826 27.9172C144.061 27.9172 145.432 26.4195 145.432 23.9375C145.432 21.4695 144.054 19.9648 141.826 19.9648C139.59 19.9648 138.212 21.4695 138.212 23.9375C138.212 26.4195 139.583 27.9172 141.826 27.9172ZM141.826 26.5742C140.512 26.5742 139.773 25.611 139.773 23.9375C139.773 22.2781 140.512 21.3078 141.826 21.3078C143.133 21.3078 143.878 22.2781 143.878 23.9375C143.878 25.6039 143.133 26.5742 141.826 26.5742Z" fill="white"/>
<path d="M147.251 27.7695H148.763V23.2906C148.763 22.0953 149.473 21.35 150.59 21.35C151.708 21.35 152.243 21.9617 152.243 23.1922V27.7695H153.753V22.8125C153.753 20.9915 152.811 19.9648 151.103 19.9648C149.951 19.9648 149.192 20.4781 148.82 21.3289H148.707V20.1125H147.251V27.7695Z" fill="white"/>
<path d="M160.355 18.2109V20.1515H159.139V21.4242H160.355V25.7484C160.355 27.225 161.023 27.8156 162.703 27.8156C162.998 27.8156 163.279 27.7805 163.525 27.7383V26.4797C163.314 26.5008 163.18 26.5149 162.949 26.5149C162.196 26.5149 161.866 26.1633 161.866 25.3618V21.4242H163.525V20.1515H161.866V18.2109H160.355Z" fill="white"/>
<path d="M165.374 27.7703H166.886V23.2984C166.886 22.1383 167.575 21.3578 168.812 21.3578C169.88 21.3578 170.45 21.9766 170.45 23.1999V27.7703H171.961V22.8273C171.961 21.0062 170.956 19.9726 169.325 19.9726C168.172 19.9726 167.364 20.486 166.992 21.3438H166.871V17.125H165.374V27.7703Z" fill="white"/>
<path d="M177.231 21.2516C178.349 21.2516 179.08 22.0321 179.116 23.2344H175.25C175.334 22.0391 176.115 21.2516 177.231 21.2516ZM179.109 25.7023C178.827 26.3 178.202 26.6305 177.288 26.6305C176.079 26.6305 175.299 25.7797 175.25 24.4368V24.3523H180.656V23.825C180.656 21.4203 179.369 19.9648 177.239 19.9648C175.081 19.9648 173.71 21.5188 173.71 23.9657C173.71 26.4125 175.052 27.9172 177.246 27.9172C178.996 27.9172 180.22 27.0734 180.564 25.7023H179.109Z" fill="white"/>
<path d="M79.0286 56.5732H82.4021L74.9859 36.0273H71.5412L64.125 56.5732H67.4416L69.3206 51.0202H77.1496L79.0286 56.5732ZM73.1924 39.4446H73.2778L76.3382 48.4573H70.1319L73.1924 39.4446Z" fill="white"/>
<path d="M92.9049 40.9531C90.7554 40.9531 88.848 42.0068 87.9797 43.6727H87.9086V41.1098H84.9336V61.6983H88.0224V54.0381H88.0794C89.0046 55.7467 90.7554 56.7291 92.976 56.7291C96.8621 56.7291 99.4385 53.6252 99.4385 48.8411C99.4385 44.0429 96.8479 40.9531 92.9049 40.9531ZM92.122 54.1093C89.6595 54.1093 88.0082 52.002 87.994 48.8411C88.0082 45.6944 89.6737 43.573 92.122 43.573C94.6273 43.573 96.2784 45.6517 96.2784 48.8411C96.2784 52.0447 94.6273 54.1093 92.122 54.1093Z" fill="white"/>
<path d="M110.454 40.9531C108.305 40.9531 106.398 42.0068 105.53 43.6727H105.459V41.1098H102.483V61.6983H105.572V54.0381H105.629C106.555 55.7467 108.305 56.7291 110.526 56.7291C114.412 56.7291 116.988 53.6252 116.988 48.8411C116.988 44.0429 114.398 40.9531 110.454 40.9531ZM109.672 54.1093C107.209 54.1093 105.559 52.002 105.544 48.8411C105.559 45.6944 107.223 43.573 109.672 43.573C112.177 43.573 113.828 45.6517 113.828 48.8411C113.828 52.0447 112.177 54.1093 109.672 54.1093Z" fill="white"/>
<path d="M126.74 50.8473C126.938 54.5635 130.013 56.9128 134.568 56.9128C139.436 56.9128 142.496 54.5066 142.496 50.6623C142.496 47.6579 140.746 45.9636 136.532 44.967L134.269 44.4116C131.622 43.7566 130.54 42.9024 130.54 41.4501C130.54 39.6275 132.234 38.3746 134.71 38.3746C137.187 38.3746 138.881 39.6134 139.066 41.6636H142.169C142.07 38.1183 139.095 35.6836 134.753 35.6836C130.369 35.6836 127.281 38.1183 127.281 41.6636C127.281 44.5255 129.031 46.291 132.804 47.2024L135.465 47.8431C138.127 48.498 139.251 49.4519 139.251 51.0466C139.251 52.8834 137.387 54.2218 134.796 54.2218C132.091 54.2218 130.113 52.8834 129.885 50.8473H126.74Z" fill="white"/>
<path d="M146.555 37.6328V41.107H144.42V43.5417H146.555V52.4976C146.555 55.4877 147.751 56.6694 150.84 56.6694C151.508 56.6694 152.234 56.5982 152.576 56.5128V54.078C152.377 54.1065 151.85 54.1492 151.522 54.1492C150.228 54.1492 149.629 53.5228 149.629 52.1843V43.5417H152.59V41.107H149.629V37.6328H146.555Z" fill="white"/>
<path d="M162.025 56.7574C166.494 56.7574 169.327 53.7103 169.327 48.8409C169.327 43.9714 166.48 40.9102 162.025 40.9102C157.57 40.9102 154.708 43.9856 154.708 48.8409C154.708 53.7103 157.555 56.7574 162.025 56.7574ZM162.025 54.1945C159.406 54.1945 157.84 52.2153 157.84 48.8409C157.84 45.4806 159.406 43.473 162.025 43.473C164.644 43.473 166.196 45.4664 166.196 48.8409C166.196 52.2153 164.644 54.1945 162.025 54.1945Z" fill="white"/>
<path d="M172.389 56.5725H175.478V47.3461C175.478 45.1677 176.758 43.758 178.794 43.758C179.406 43.758 179.947 43.8435 180.203 43.9432V41.0528C179.961 40.9958 179.576 40.9531 179.121 40.9531C177.299 40.9531 175.876 41.9925 175.391 43.7154H175.335V41.1098H172.389V56.5725Z" fill="white"/>
<path d="M188.543 43.4303C190.792 43.4303 192.315 45.025 192.386 47.4313H184.543C184.714 45.0534 186.322 43.4303 188.543 43.4303ZM192.371 52.0444C191.945 53.3971 190.536 54.2513 188.741 54.2513C186.208 54.2513 184.528 52.4858 184.528 49.809V49.6239H195.475V48.5418C195.475 43.8574 192.799 40.9102 188.556 40.9102C184.229 40.9102 181.411 44.0568 181.411 48.8978C181.411 53.7388 184.201 56.7574 188.685 56.7574C192.158 56.7574 194.877 54.821 195.318 52.0444H192.371Z" fill="white"/>
<path d="M46.1968 36.6512C46.1504 31.6094 50.4116 29.1565 50.6065 29.0423C48.1932 25.5961 44.4527 25.1252 43.1382 25.0877C39.9965 24.7639 36.9493 26.9289 35.3489 26.9289C33.7166 26.9289 31.2522 25.119 28.5961 25.1721C25.1782 25.2238 21.9807 27.162 20.227 30.1717C16.6078 36.3086 19.307 45.327 22.7744 50.2875C24.509 52.7169 26.5358 55.4294 29.1887 55.3341C31.784 55.2293 32.7535 53.7134 35.8855 53.7134C38.9888 53.7134 39.8992 55.3341 42.6047 55.2731C45.3902 55.2293 47.1439 52.8327 48.8177 50.3814C50.8221 47.5968 51.6271 44.8546 51.659 44.7138C51.5935 44.6919 46.2494 42.6943 46.1968 36.6512Z" fill="white"/>
<path d="M41.0866 21.8263C42.4825 20.1165 43.4376 17.7903 43.1725 15.4297C41.1521 15.5173 38.6253 16.7985 37.1704 18.4708C35.8831 19.9444 34.7331 22.3597 35.0302 24.6311C37.2997 24.7969 39.63 23.5094 41.0866 21.8263Z" fill="white"/>
</g>
<defs>
<clipPath id="clip0_5431_5319">
<rect width="218" height="72" fill="white"/>
</clipPath>
</defs>
</svg>
