<svg width="218" height="72" viewBox="0 0 218 72" fill="none" xmlns="http://www.w3.org/2000/svg">
<g clip-path="url(#clip0_5431_5305)">
<path d="M206.663 0H11.3373C5.076 0 0.000244141 5.07709 0.000244141 11.34V60.66C0.000244141 66.9229 5.076 72 11.3373 72H206.663C212.924 72 218 66.9229 218 60.66V11.34C218 5.07709 212.924 0 206.663 0Z" fill="black"/>
<path d="M20.1876 57.6927L35.5084 41.7736L20.2005 25.883C19.7916 26.1304 19.5386 26.7032 19.5386 27.4531V56.138C19.544 56.8878 19.7879 57.4187 20.1876 57.6927Z" fill="white"/>
<path d="M36.0591 41.3352L40.6227 36.5928L22.0383 26.0041C21.7254 25.8152 21.3699 25.7154 21.0078 25.7148L36.0572 41.3333L36.0591 41.3352Z" fill="white"/>
<path d="M36.0575 42.2148L20.9604 57.9018C21.3394 57.9084 21.7126 57.8056 22.0385 57.6049L40.6595 46.9877L36.0575 42.2148Z" fill="white"/>
<path d="M47.3517 40.4326L41.1672 36.9023L36.479 41.7743L41.2021 46.6766L47.3498 43.1559C48.6571 42.408 48.6571 41.1767 47.3517 40.4326Z" fill="white"/>
<path d="M101.623 37.5023C97.8058 37.5023 94.6872 40.4171 94.6872 44.4386C94.6872 48.4275 97.8058 51.3727 101.623 51.3727C105.449 51.3727 108.567 48.4275 108.567 44.4386C108.567 40.4171 105.449 37.5023 101.623 37.5023ZM101.623 48.6415C99.5286 48.6415 97.7265 46.9069 97.7265 44.4386C97.7265 41.9376 99.5286 40.2336 101.623 40.2336C103.717 40.2336 105.528 41.9376 105.528 44.4386C105.528 46.9069 103.717 48.6415 101.623 48.6415ZM86.4896 37.5023C82.664 37.5023 79.5536 40.4171 79.5536 44.4386C79.5536 48.4275 82.664 51.3727 86.4896 51.3727C90.3131 51.3727 93.4255 48.4275 93.4255 44.4386C93.4255 40.4171 90.3131 37.5023 86.4896 37.5023ZM86.4896 48.6415C84.393 48.6415 82.5848 46.9069 82.5848 44.4386C82.5848 41.9376 84.393 40.2336 86.4896 40.2336C88.5843 40.2336 90.3863 41.9376 90.3863 44.4386C90.3863 46.9069 88.5843 48.6415 86.4896 48.6415ZM68.4814 39.6283V42.5756H75.4966C75.2912 44.2225 74.7427 45.4332 73.9017 46.2771C72.8778 47.2962 71.2829 48.4275 68.4814 48.4275C64.1642 48.4275 60.7835 44.9318 60.7835 40.6005C60.7835 36.2692 64.1642 32.7736 68.4814 32.7736C70.8156 32.7736 72.5141 33.6887 73.7676 34.875L75.8378 32.798C74.0845 31.1185 71.7522 29.8283 68.4814 29.8283C62.5611 29.8283 57.5857 34.661 57.5857 40.6005C57.5857 46.5401 62.5611 51.3727 68.4814 51.3727C71.6811 51.3727 74.0845 50.321 75.9739 48.348C77.9101 46.4054 78.5134 43.6742 78.5134 41.4688C78.5134 40.784 78.4583 40.1541 78.3547 39.6283H68.4814ZM142.119 41.9132C141.549 40.362 139.787 37.5023 136.199 37.5023C132.645 37.5023 129.684 40.3131 129.684 44.4386C129.684 48.3235 132.614 51.3727 136.541 51.3727C139.716 51.3727 141.549 49.4304 142.302 48.299L139.945 46.7235C139.16 47.8771 138.088 48.6415 136.541 48.6415C135.002 48.6415 133.899 47.9342 133.193 46.5401L142.438 42.702L142.119 41.9132ZM132.693 44.2225C132.614 41.5483 134.763 40.1786 136.303 40.1786C137.509 40.1786 138.534 40.7838 138.875 41.6503L132.693 44.2225ZM125.178 50.9508H128.217V30.5681H125.178V50.9508ZM120.2 39.0474H120.098C119.416 38.2361 118.114 37.5023 116.464 37.5023C113.002 37.5023 109.837 40.5515 109.837 44.4609C109.837 48.348 113.002 51.3727 116.464 51.3727C118.114 51.3727 119.416 50.6329 120.098 49.7972H120.2V50.7918C120.2 53.4437 118.788 54.8684 116.51 54.8684C114.654 54.8684 113.502 53.5232 113.027 52.3919L110.384 53.4987C111.146 55.3372 113.162 57.5997 116.51 57.5997C120.075 57.5997 123.081 55.4962 123.081 50.3781V37.9243H120.2V39.0474ZM116.724 48.6415C114.63 48.6415 112.876 46.8825 112.876 44.4609C112.876 42.017 114.63 40.2336 116.724 40.2336C118.788 40.2336 120.416 42.017 120.416 44.4609C120.416 46.8825 118.788 48.6415 116.724 48.6415ZM156.349 30.5681H149.08V50.9508H152.111V43.2279H156.349C159.716 43.2279 163.016 40.784 163.016 36.8969C163.016 33.012 159.707 30.5681 156.349 30.5681ZM156.428 40.3926H152.111V33.4034H156.428C158.691 33.4034 159.983 35.2887 159.983 36.8969C159.983 38.4746 158.691 40.3926 156.428 40.3926ZM175.166 37.4636C172.976 37.4636 170.698 38.4338 169.761 40.5842L172.451 41.7155C173.031 40.5842 174.095 40.2174 175.22 40.2174C176.793 40.2174 178.388 41.1651 178.412 42.8385V43.0525C177.864 42.7347 176.69 42.2637 175.245 42.2637C172.348 42.2637 169.396 43.8637 169.396 46.8498C169.396 49.5811 171.768 51.3401 174.437 51.3401C176.476 51.3401 177.602 50.4168 178.308 49.3426H178.412V50.9182H181.34V43.0994C181.34 39.4855 178.65 37.4636 175.166 37.4636ZM174.8 48.6333C173.809 48.6333 172.426 48.14 172.426 46.907C172.426 45.3294 174.15 44.7239 175.641 44.7239C176.976 44.7239 177.602 45.0194 178.412 45.4089C178.175 47.2962 176.555 48.6333 174.8 48.6333ZM192.005 37.91L188.521 46.7459H188.418L184.815 37.91H181.546L186.959 50.2579L183.871 57.1288H187.039L195.378 37.91H192.005ZM164.682 50.9508H167.722V30.5681H164.682V50.9508Z" fill="white"/>
<path d="M62.3807 23.8383C61.6039 23.8383 60.8876 23.6573 60.2315 23.2952C59.583 22.9256 59.0664 22.4203 58.6819 21.7791C58.2973 21.1305 58.105 20.4064 58.105 19.6067C58.105 18.8072 58.2973 18.0869 58.6819 17.4457C59.0664 16.7971 59.583 16.2917 60.2315 15.9296C60.8876 15.56 61.6039 15.3752 62.3807 15.3752C63.0141 15.3752 63.591 15.4883 64.1113 15.7146C64.6391 15.9334 65.0916 16.2464 65.4686 16.6537L64.4167 17.6833C64.1452 17.3968 63.8435 17.1818 63.5118 17.0384C63.1875 16.8951 62.8067 16.8234 62.3693 16.8234C61.8716 16.8234 61.4154 16.9404 61.0007 17.1742C60.5859 17.4005 60.2541 17.7286 60.0053 18.1585C59.7639 18.581 59.6433 19.0637 59.6433 19.6067C59.6433 20.1498 59.7677 20.6363 60.0166 21.0663C60.2654 21.4887 60.5972 21.8168 61.012 22.0506C61.4342 22.2769 61.8943 22.3901 62.392 22.3901C63.146 22.3901 63.7643 22.1676 64.247 21.7225C64.3978 21.5867 64.5298 21.4133 64.6429 21.2021C64.756 20.9909 64.8389 20.7608 64.8918 20.5119H62.3467V19.2107H66.317C66.3697 19.422 66.3962 19.6596 66.3962 19.9235C66.3962 20.4591 66.3132 20.957 66.1473 21.417C65.989 21.8772 65.7438 22.2807 65.4121 22.6277C65.0501 23.02 64.6127 23.3216 64.1 23.5328C63.5872 23.7365 63.0141 23.8383 62.3807 23.8383Z" fill="white"/>
<path d="M68.0859 15.5547H73.2213V17.0029H69.6129V18.8811H72.8593V20.3293H69.6129V22.2075H73.2213V23.6557H68.0859V15.5547Z" fill="white"/>
<path d="M76.6558 17.0029H74.3936V15.5547H80.4451V17.0029H78.1828V23.6557H76.6558V17.0029Z" fill="white"/>
<path d="M84.769 15.5547H86.2961V23.6557H84.769V15.5547Z" fill="white"/>
<path d="M90.004 17.0029H87.7417V15.5547H93.7933V17.0029H91.531V23.6557H90.004V17.0029Z" fill="white"/>
<path d="M101.719 23.8383C100.927 23.8383 100.207 23.6536 99.5587 23.2839C98.9178 22.9068 98.4126 22.3939 98.043 21.7451C97.6735 21.0965 97.4888 20.3837 97.4888 19.6067C97.4888 18.8299 97.6735 18.1171 98.043 17.4683C98.4126 16.8197 98.9178 16.3106 99.5587 15.9409C100.207 15.5638 100.927 15.3752 101.719 15.3752C102.511 15.3752 103.227 15.5638 103.869 15.9409C104.517 16.3106 105.026 16.8197 105.396 17.4683C105.765 18.1171 105.95 18.8299 105.95 19.6067C105.95 20.3837 105.765 21.0965 105.396 21.7451C105.026 22.3939 104.517 22.9068 103.869 23.2839C103.227 23.6536 102.511 23.8383 101.719 23.8383ZM101.719 22.3901C102.217 22.3901 102.673 22.2732 103.088 22.0393C103.503 21.8055 103.827 21.4774 104.061 21.055C104.302 20.6326 104.423 20.1498 104.423 19.6067C104.423 19.0637 104.302 18.581 104.061 18.1585C103.827 17.7362 103.503 17.4081 103.088 17.1742C102.673 16.9404 102.217 16.8234 101.719 16.8234C101.222 16.8234 100.765 16.9404 100.351 17.1742C99.9433 17.4081 99.6191 17.7362 99.3778 18.1585C99.144 18.581 99.0271 19.0637 99.0271 19.6067C99.0271 20.1498 99.144 20.6326 99.3778 21.055C99.6191 21.4774 99.9433 21.8055 100.351 22.0393C100.765 22.2732 101.222 22.3901 101.719 22.3901Z" fill="white"/>
<path d="M107.622 15.5547H109.398L112.656 20.9855H112.746L112.656 19.4242V15.5547H114.171V23.6557H112.565L109.126 17.9194H109.036L109.126 19.4807V23.6557H107.622V15.5547Z" fill="white"/>
</g>
<defs>
<clipPath id="clip0_5431_5305">
<rect width="218" height="72" fill="white"/>
</clipPath>
</defs>
</svg>
