<svg width="88" height="88" viewBox="0 0 88 88" fill="none" xmlns="http://www.w3.org/2000/svg">
<mask id="mask0_23_30925" style="mask-type:luminance" maskUnits="userSpaceOnUse" x="0" y="0" width="88" height="88">
<path d="M43.7305 87.461C67.8822 87.461 87.461 67.8822 87.461 43.7305C87.461 19.5788 67.8822 0 43.7305 0C19.5788 0 0 19.5788 0 43.7305C0 67.8822 19.5788 87.461 43.7305 87.461Z" fill="white"/>
</mask>
<g mask="url(#mask0_23_30925)">
<path d="M43.7305 87.4593C67.8822 87.4593 87.4611 67.8804 87.4611 43.7287C87.4611 19.577 67.8822 -0.00177002 43.7305 -0.00177002C19.5788 -0.00177002 0 19.577 0 43.7287C0 67.8804 19.5788 87.4593 43.7305 87.4593Z" fill="#C07124"/>
<path d="M88.2223 14.3726C81.0566 8.64006 73.0113 8.71351 70.652 8.77084C62.9274 8.95894 56.9996 12.325 53.2358 15.2074C52.7892 15.2183 52.3436 15.2541 51.9011 15.3149C51.7668 15.3328 51.636 15.3543 51.5088 15.3776C51.2572 14.8715 50.8972 14.427 50.4545 14.0756C50.0117 13.7242 49.4971 13.4745 48.9471 13.3444C47.6107 13.0595 46.5394 13.7331 45.4287 14.4282C44.533 14.9943 43.2163 15.8147 42.867 17.3679C42.6778 18.1644 42.7768 19.0021 43.1464 19.7326C43.7824 20.9328 44.9737 21.3198 45.2316 21.404C45.6939 21.5523 46.1811 21.6071 46.6648 21.5652C45.9673 22.4263 45.3248 23.3035 44.7372 24.1968C44.3126 24.3545 43.8702 24.5372 43.4098 24.7522C43.2306 24.8346 43.0676 24.9188 42.9028 25.003C42.3449 24.4201 41.666 23.9668 40.9138 23.6749C40.1617 23.383 39.3546 23.2597 38.5497 23.3136C36.6077 23.4928 35.4308 24.8632 34.2108 26.282C33.2201 27.4339 31.7816 29.1089 31.9608 31.3733C32.0403 32.5396 32.5303 33.64 33.3438 34.4796C34.7178 35.8465 36.5056 35.8715 36.8943 35.8751C37.9669 35.8777 39.0169 35.5663 39.9147 34.9794C39.4317 36.7582 39.0584 38.565 38.7969 40.3895C38.177 40.5167 37.5339 40.6654 36.8585 40.8517C36.6292 40.9162 36.4035 40.9825 36.1831 41.0488C34.5906 39.0459 32.1972 37.6236 29.8863 37.792C24.3329 38.1932 20.381 47.7057 22.2888 54.2731C22.5074 55.0273 23.6396 58.9308 26.4342 59.6008C29.6749 60.3854 32.9084 56.3028 34.1373 54.7424C35.9091 52.5049 39.3504 48.1607 37.5715 43.4654C37.2385 42.6056 36.7764 41.8016 36.2011 41.081L38.7969 40.4056C38.2564 44.1609 38.1284 47.9641 38.4153 51.7472C37.9472 52.0385 37.5785 52.4652 37.3583 52.9707C36.4115 53.792 35.649 54.8042 35.1208 55.9409C33.3169 59.8999 35.0797 64.452 37.2921 67.0979C37.9477 67.8825 40.8319 71.3328 45.1869 71.125C45.787 71.0964 47.9349 70.9943 49.7013 69.4859C53.268 66.4404 52.3275 60.1973 50.7188 56.6234C50.0685 55.1777 48.2359 51.1076 44.4703 50.4538C42.7469 50.1528 41.1615 50.6634 40.0347 51.2079C39.7298 51.2382 39.4293 51.3031 39.139 51.4014C39.6764 46.6613 41.1705 38.8793 45.4001 31.719L46.5967 33.6591C45.944 33.8584 45.3429 34.1984 44.8357 34.6552C43.3238 36.0399 43.3094 38.0445 43.3005 39.2394C43.3005 39.6479 43.3345 44.3575 46.7042 46.1042C47.0499 46.2833 48.6372 47.1038 50.4931 46.5449C51.6073 46.1886 52.5593 45.4492 53.1802 44.4579C54.4056 42.5446 53.9255 40.3895 53.5941 38.9044C53.1874 37.0772 52.7933 35.3216 51.1649 34.2467C50.5131 33.8396 49.7834 33.5732 49.0227 33.4646C48.2619 33.356 47.4868 33.4076 46.7472 33.6161C46.6128 33.3635 46.4713 33.1056 46.3119 32.8404C46.036 32.3818 45.7548 31.9626 45.4753 31.5864C47.5989 27.9718 50.3799 24.7862 53.6747 22.194L54.4987 23.2491C54.0308 23.4219 53.6008 23.6835 53.2322 24.0195C51.9782 25.1839 51.9782 26.8571 51.9782 27.8531C51.9782 28.1953 52.0337 32.1257 54.857 33.566C55.1472 33.7129 56.4693 34.39 58.0225 33.9135C58.9497 33.6097 59.7397 32.9879 60.2528 32.1579C61.2649 30.5546 60.8529 28.7542 60.5699 27.5235C60.2116 26.0008 59.882 24.53 58.5187 23.6451C57.9456 23.2915 57.3017 23.0682 56.6327 22.9911C55.9637 22.914 55.2859 22.985 54.6474 23.199C54.5578 23.0718 54.4682 22.9446 54.3697 22.8174C54.1762 22.5612 53.9846 22.3284 53.7911 22.1008C54.0347 21.9217 54.273 21.7229 54.5238 21.5419C57.3525 19.4943 63.4809 15.1358 71.6731 15.6499C72.9665 15.7323 76.587 15.9957 80.0928 17.9788C90.7357 23.9908 90.2878 40.1316 90.2574 40.8589C89.9708 64.6365 89.6268 82.1441 89.4817 87.8086C89.3835 93.2281 87.8419 98.5233 85.0157 103.149C86.3682 103.175 90.4097 103.079 93.5411 100.169C95.4633 98.378 96.273 96.3698 96.8928 94.3043C97.6655 91.727 98.0519 88.2469 98.0519 83.8639V37.2008C98.1271 35.6512 98.4711 22.5774 88.2223 14.3726ZM53.1103 15.3006C52.6446 15.6589 52.214 16.007 51.8187 16.345C51.7714 16.0507 51.6853 15.7639 51.5626 15.4923L53.1103 15.3006ZM43.03 25.1373L44.585 24.4351C44.2518 24.9486 43.9353 25.4663 43.6355 25.9882C43.4664 25.6836 43.2645 25.3983 43.0336 25.1373H43.03Z" fill="#C07124"/>
<path d="M85.3006 105.558H84.9764L80.788 105.474L82.9682 101.891C85.5731 97.6234 86.9918 92.7378 87.0777 87.7387C87.2371 81.4544 87.5757 63.7748 87.8516 40.8213V40.7496C87.8516 40.5973 88.3783 25.415 78.9088 20.0658C75.8096 18.3156 72.5797 18.1131 71.5191 18.0469C66.4727 17.7262 62.2216 19.5338 59.2461 21.2714C59.4443 21.3729 59.6378 21.484 59.8265 21.6046C62.0084 23.0234 62.5137 25.209 62.9132 26.9664C63.2338 28.3655 63.8322 30.9738 62.2844 33.4245C61.4666 34.742 60.2057 35.7246 58.7284 36.1958C57.6508 36.5224 56.5057 36.5564 55.4106 36.2943C55.6399 37.0109 55.7976 37.7167 55.9481 38.3742C56.3063 39.9865 56.9764 42.9889 55.21 45.7477C54.2825 47.2245 52.8582 48.3216 51.1936 48.8415C49.9232 49.2156 48.5741 49.2311 47.2955 48.8863C50.6544 50.6222 52.2953 54.2606 52.908 55.6274C55.1437 60.5933 55.5808 67.6192 51.2581 71.3078C49.6691 72.6657 47.6609 73.4091 45.2927 73.5202C41.7098 73.6993 38.2147 71.9563 35.4398 68.6332C33.6484 66.4835 32.2385 63.4721 32.0074 60.3299C30.2733 61.6036 28.1612 62.4796 25.8646 61.9314C23.1882 61.283 21.0959 58.7982 19.9726 54.9341C18.6255 50.3015 19.7254 44.1336 22.6454 39.9381C24.5569 37.1901 27.0649 35.5724 29.709 35.3807C30.1333 35.3509 30.5594 35.3569 30.9827 35.3986C30.1615 34.2745 29.6718 32.9426 29.5693 31.5542C29.3113 28.2902 31.3159 25.9578 32.3926 24.7038C33.7451 23.1309 35.4273 21.1747 38.3401 20.9078C39.3199 20.8239 40.3065 20.9334 41.244 21.2302C41.1652 21.1066 41.0917 20.9794 41.0219 20.8487C40.3818 19.611 40.2039 18.1857 40.5203 16.8287C41.0918 14.2992 43.082 13.0506 44.1515 12.3806C45.4252 11.5834 47.1629 10.4942 49.4523 10.9797C50.6293 11.2442 51.7029 11.8477 52.5408 12.7156C58.1264 8.64904 64.1976 6.51008 70.5984 6.35422C79.8063 6.11596 86.0835 9.56446 89.729 12.4827C100.519 21.121 100.58 34.4993 100.478 37.242V83.8549C100.478 88.5126 100.064 92.1582 99.2146 94.9869C98.5231 97.2942 97.5576 99.7323 95.1947 101.925C91.8375 105.046 87.6796 105.558 85.3006 105.558ZM92.6651 40.9144C92.3911 63.8734 92.0507 81.5691 91.8912 87.8624C91.8124 92.0414 90.9381 96.1671 89.3152 100.019C90.2707 99.6479 91.1481 99.1011 91.902 98.4067C93.3351 97.0721 93.9962 95.5834 94.5891 93.6146C95.2932 91.2732 95.6479 87.9931 95.6479 83.8657V37.0987C95.7428 34.8899 95.7571 23.4964 86.7086 16.2536C83.6883 13.8352 78.4538 10.994 70.7041 11.1785C65.0503 11.3165 59.6617 13.3157 54.6923 17.1207L54.5776 17.2085C54.1656 17.5274 53.759 17.8552 53.3702 18.1848L50.5863 20.5423L48.5423 23.079C47.9189 23.8493 47.3277 24.6554 46.7849 25.4759L46.6058 25.7464L46.5502 25.8306C47.7138 24.3935 48.9891 23.0505 50.3642 21.8142L50.3015 21.7426L52.1269 20.3363L52.195 20.2826L54.0939 18.8064L54.1298 18.853C57.3973 16.5582 63.6243 12.7227 71.8183 13.2423C75.4012 13.4662 78.5792 14.3529 81.2753 15.8757C93.1238 22.5648 92.7081 39.7375 92.6651 40.9144ZM39.7876 53.7231L39.7034 53.7769C39.6476 53.8097 39.6008 53.8559 39.5673 53.9112L39.3523 54.42L38.9403 54.7783C38.2476 55.3743 37.6894 56.1107 37.3029 56.9387C36.0005 59.805 37.3369 63.4094 39.1302 65.5537C40.9234 67.698 42.996 68.8231 45.0633 68.7192C46.3406 68.66 47.3725 68.3018 48.1303 67.6551C50.5738 65.568 49.8268 60.5252 48.5136 57.6123C47.9762 56.421 46.5556 53.2609 44.0494 52.8256C43.1537 52.6698 42.1523 52.8561 41.0702 53.3774L40.6833 53.5565L40.2569 53.5977C40.1392 53.6093 40.0231 53.6346 39.9112 53.673L39.7876 53.7231ZM30.2447 40.1871C30.1802 40.1871 30.1157 40.1871 30.053 40.1871C28.4801 40.3018 27.21 41.7994 26.5937 42.6951C24.4816 45.7405 23.6397 50.3176 24.5945 53.5977C25.1785 55.6095 26.1208 57.0462 26.995 57.2576C27.6435 57.417 29.1931 57.1035 32.2493 53.2448C34.3614 50.5774 36.5147 47.4693 35.3198 44.3146C35.0799 43.7003 34.7503 43.1249 34.3417 42.6073L34.2915 42.5446C33.1521 41.1133 31.5506 40.1853 30.2447 40.1853V40.1871ZM43.4099 47.9565C43.9004 47.957 44.39 47.9989 44.8734 48.0819C45.1207 48.1249 45.3625 48.1787 45.59 48.2414C44.3564 47.5948 43.3193 46.6283 42.5876 45.4432C42.378 46.3389 42.2006 47.2202 42.0502 48.0604C42.5 47.9905 42.9546 47.9552 43.4099 47.9547V47.9565ZM47.3797 35.9378L47.3206 35.9576C47.0032 36.051 46.7102 36.2131 46.4625 36.4323C45.7799 37.0575 45.7172 38.0822 45.7083 39.2574C45.7083 39.2932 45.7083 42.876 47.815 43.967C48.5119 44.3253 49.1997 44.422 49.8017 44.2411C50.3635 44.0505 50.8416 43.6705 51.1542 43.1663C51.7884 42.1774 51.5824 40.9467 51.2456 39.4401C50.8712 37.7544 50.6203 36.7744 49.8429 36.2639C49.4796 36.0436 49.0749 35.9003 48.6539 35.843C48.233 35.7857 47.8047 35.8155 47.3958 35.9307L47.3797 35.9378ZM38.9761 25.7034C38.9073 25.7028 38.8386 25.7058 38.7701 25.7124C37.8439 25.7966 37.1578 26.5418 36.0363 27.8513C35.0314 29.0229 34.2682 30.0118 34.3614 31.1834C34.3959 31.7771 34.6374 32.34 35.0439 32.7742C35.49 33.2167 36.1403 33.4585 36.9267 33.4675C37.5362 33.4681 38.1317 33.2852 38.6357 32.9426L43.1662 30.1032L41.5289 27.1581C41.4438 27.0069 41.3429 26.8652 41.2279 26.7353L41.1616 26.6654C40.5864 26.0721 39.8022 25.7269 38.9761 25.7034ZM55.3408 25.492C55.1662 25.5557 55.0051 25.6517 54.866 25.7751C54.4164 26.1907 54.3806 26.9592 54.3788 27.8442C54.3788 27.8728 54.4182 30.6316 55.9445 31.4091C56.3557 31.6486 56.8443 31.718 57.306 31.6026C57.681 31.4658 57.9974 31.2039 58.2017 30.8609C58.6442 30.1605 58.4758 29.2146 58.2017 28.0502C57.8774 26.6314 57.6821 25.9739 57.1877 25.6533C56.9183 25.4996 56.6196 25.4043 56.311 25.3734C56.0024 25.3425 55.6908 25.3769 55.3963 25.4741L55.3408 25.492ZM48.691 31.0096C49.174 31.0372 49.6537 31.108 50.1241 31.221C49.9503 30.6841 49.8167 30.135 49.7246 29.5783C49.3735 30.0417 49.0308 30.5188 48.6964 31.0096H48.691ZM48.3237 15.6876C47.9887 15.6876 47.5248 15.9527 46.7115 16.4686C45.9376 16.9523 45.3375 17.3643 45.2174 17.9018C45.1549 18.1405 45.1763 18.3936 45.2783 18.6183C45.4374 18.8704 45.6877 19.0514 45.977 19.1235C46.1389 19.175 46.3096 19.1927 46.4786 19.1755L49.7874 18.9103L49.4452 16.7284C49.4313 16.65 49.4079 16.5735 49.3753 16.5009L49.3538 16.4579C49.2628 16.2774 49.1355 16.1177 48.9798 15.9889C48.8241 15.86 48.6434 15.7647 48.4491 15.7091C48.4099 15.698 48.3697 15.6908 48.3291 15.6876H48.3237Z" fill="white"/>
<path d="M37.5716 43.4636C36.3785 40.3125 33.0464 37.5626 29.8792 37.792C24.3258 38.1932 20.3739 47.7057 22.2818 54.2731C22.5003 55.0273 23.6325 58.9308 26.4271 59.6008C29.6678 60.3854 32.9013 56.3028 34.1302 54.7424C35.9091 52.5031 39.3505 48.1589 37.5716 43.4636Z" fill="#79422B"/>
<path d="M90.2593 40.8517C89.9727 64.6293 89.6287 82.1369 89.4836 87.8014C89.3862 93.2235 87.8439 98.5214 85.0158 103.149C86.3684 103.175 90.4098 103.079 93.5412 100.169C95.4634 98.378 96.2732 96.3698 96.893 94.3043C97.6657 91.727 98.052 88.2469 98.052 83.8639V37.2008C98.1201 35.6512 98.4641 22.5774 88.2153 14.3726C81.0496 8.64006 73.0043 8.71351 70.645 8.77084C59.0688 9.05209 51.5179 16.474 49.2571 18.7007C35.3574 32.3711 38.4011 52.8381 38.8185 55.3658C38.9457 51.98 39.9793 32.0576 54.515 21.5365C57.3436 19.4889 63.4721 15.1304 71.6643 15.6445C72.9577 15.7269 76.5782 15.9903 80.084 17.9734C90.7376 23.9854 90.2898 40.1244 90.2593 40.8517Z" fill="#C07124"/>
<path d="M50.4966 46.5449C51.6108 46.1886 52.5628 45.4492 53.1838 44.4579C54.4091 42.5446 53.929 40.3895 53.5976 38.9044C53.191 37.0772 52.7968 35.3216 51.1684 34.2467C49.3304 33.0375 46.5304 33.1092 44.8375 34.6587C43.3255 36.0435 43.3112 38.0481 43.3022 39.243C43.3022 39.6515 43.3363 44.3611 46.706 46.1078C47.0535 46.2815 48.6497 47.1038 50.4966 46.5449Z" fill="#79422B"/>
<path d="M45.1781 71.1251C45.7782 71.0964 47.9261 70.9943 49.6925 69.4859C53.2592 66.4405 52.3187 60.1974 50.71 56.6235C50.0597 55.1778 48.2271 51.1077 44.4615 50.4538C41.7296 49.9773 39.347 51.5286 38.5785 52.041C37.9801 52.4315 36.1493 53.6533 35.112 55.9409C33.3081 59.9 35.0708 64.452 37.2833 67.0979C37.9389 67.8754 40.8231 71.3329 45.1781 71.1251Z" fill="#79422B"/>
<path d="M35.5204 41.4751C35.4684 41.4752 35.418 41.4567 35.3784 41.423C35.3387 41.3892 35.3125 41.3424 35.3042 41.291C35.296 41.2396 35.3064 41.187 35.3336 41.1426C35.3608 41.0982 35.4029 41.0649 35.4524 41.0488C35.8984 40.9019 36.3481 40.7657 36.7942 40.6421C37.543 40.4343 38.3097 40.2534 39.0711 40.1047C39.0997 40.0995 39.129 40.1001 39.1573 40.1063C39.1857 40.1125 39.2126 40.1243 39.2364 40.141C39.2602 40.1576 39.2805 40.1788 39.2961 40.2033C39.3117 40.2278 39.3222 40.2552 39.3272 40.2838C39.3326 40.3124 39.3322 40.3419 39.3261 40.3703C39.32 40.3988 39.3083 40.4258 39.2916 40.4496C39.2749 40.4735 39.2536 40.4938 39.2289 40.5093C39.2043 40.5248 39.1768 40.5353 39.1481 40.54C38.3993 40.6851 37.6433 40.8625 36.9052 41.0667C36.4663 41.1885 36.0221 41.3229 35.5832 41.468C35.5627 41.4734 35.5416 41.4758 35.5204 41.4751Z" fill="#C07124"/>
<path d="M33.8814 40.248C33.2114 40.7155 33.0931 41.0667 33.111 41.3013C33.1343 41.6292 33.2723 41.8728 33.6252 42.3565C33.8694 42.6917 34.1608 42.9897 34.4904 43.2415C34.9096 43.5639 35.121 43.7019 35.4148 43.7269C35.5964 43.7259 35.7748 43.6789 35.9333 43.5902C36.0919 43.5015 36.2253 43.3742 36.3213 43.22C36.7333 42.5804 36.2747 41.622 35.8609 41.1312C35.1551 40.2964 34.0981 40.2516 33.8814 40.248Z" fill="#C07124"/>
<path d="M38.7468 51.5591C39.7626 51.0718 41.0757 51.079 41.28 51.5161C41.3247 51.611 41.305 51.8009 41.2638 52.1789C41.2418 52.3778 41.1936 52.573 41.1205 52.7593C41.1008 52.8112 41.075 52.8605 41.0435 52.9062C40.8415 53.1573 40.5549 53.3261 40.2373 53.3809C40.1872 53.3917 40.2033 53.3809 40.128 53.3989C39.867 53.4465 39.6134 53.5285 39.3738 53.6425C38.9564 53.8575 38.7254 54.2032 38.4997 54.1799C38.4602 54.1769 38.4211 54.1697 38.3832 54.1584C38.2031 54.0414 38.0086 53.948 37.8046 53.8808C37.5233 53.7983 37.3943 53.8252 37.2994 53.7016C37.1704 53.5422 37.2385 53.2878 37.2725 53.1642C37.3947 52.8096 37.5887 52.4841 37.8423 52.2079C38.096 51.9317 38.4039 51.7108 38.7468 51.5591Z" fill="#C07124"/>
<path d="M47.3689 35.121C47.3259 35.121 47.2838 35.1085 47.2478 35.085C47.2118 35.0614 47.1835 35.0278 47.1664 34.9884C46.4977 33.4281 45.5959 31.9784 44.4918 30.689C44.4724 30.6673 44.4574 30.642 44.4479 30.6145C44.4383 30.587 44.4344 30.5579 44.4362 30.5288C44.4381 30.4998 44.4457 30.4714 44.4587 30.4453C44.4717 30.4193 44.4898 30.3961 44.5119 30.3771C44.5339 30.3581 44.5596 30.3437 44.5873 30.3348C44.615 30.3259 44.6442 30.3226 44.6732 30.3251C44.7023 30.3276 44.7305 30.3359 44.7562 30.3495C44.782 30.3631 44.8047 30.3816 44.8232 30.4041C45.9599 31.7261 46.8878 33.2141 47.5749 34.8164C47.5861 34.8429 47.5919 34.8713 47.5921 34.9C47.5924 34.9288 47.5869 34.9573 47.5761 34.9839C47.5653 35.0105 47.5493 35.0347 47.5291 35.0552C47.5089 35.0756 47.4849 35.0919 47.4584 35.103C47.4304 35.116 47.3997 35.1221 47.3689 35.121Z" fill="#C07124"/>
<path d="M48.6192 34.3471C48.716 34.6014 48.406 34.9956 48.1463 35.189C48.0015 35.2908 47.8394 35.3655 47.668 35.4094C47.4637 35.4739 47.3974 35.4613 46.6719 35.5204C46.5135 35.5531 46.3502 35.5531 46.1918 35.5204C46.0771 35.4866 45.974 35.4217 45.894 35.3328C45.814 35.244 45.7602 35.1347 45.7386 35.0171C45.7207 34.6104 46.491 34.2736 46.9675 34.1554C47.5748 34.0013 48.4813 33.9906 48.6192 34.3471Z" fill="#C07124"/>
<path d="M33.3492 34.4796C32.5357 33.64 32.0458 32.5396 31.9662 31.3733C31.7871 29.1089 33.2202 27.4321 34.2163 26.282C35.4362 24.8632 36.6132 23.4928 38.5551 23.3136C40.7478 23.113 43.1841 24.4978 43.9455 26.66C44.628 28.5948 43.6947 30.3683 43.1394 31.427C42.9495 31.7853 40.6976 35.9253 36.8998 35.8751C36.5111 35.8715 34.7232 35.8464 33.3492 34.4796Z" fill="#79422B"/>
<path d="M41.3891 26.0993C41.3533 26.0987 41.3181 26.0892 41.2869 26.0717C41.2556 26.0542 41.2292 26.0292 41.2099 25.999C41.1942 25.9749 41.1835 25.9479 41.1782 25.9196C41.173 25.8914 41.1734 25.8623 41.1794 25.8342C41.1854 25.8061 41.1968 25.7794 41.2131 25.7557C41.2294 25.7321 41.2503 25.7118 41.2744 25.6962C42.7373 24.7461 44.3362 24.0242 46.0164 23.5555C46.044 23.5473 46.073 23.5447 46.1016 23.5479C46.1303 23.551 46.158 23.5599 46.1832 23.5739C46.2084 23.5879 46.2305 23.6068 46.2483 23.6295C46.2661 23.6522 46.2792 23.6782 46.2869 23.706C46.2948 23.7337 46.2971 23.7628 46.2937 23.7914C46.2903 23.8201 46.2812 23.8478 46.2671 23.8729C46.2529 23.8981 46.2339 23.9202 46.2112 23.9379C46.1885 23.9557 46.1624 23.9688 46.1346 23.9765C45.2349 24.2282 44.3577 24.5542 43.5119 24.951C42.8209 25.2758 42.1529 25.6475 41.5127 26.0635C41.4758 26.0871 41.4329 26.0995 41.3891 26.0993Z" fill="#C07124"/>
<path d="M40.6618 24.7217C40.4379 24.8794 40.4827 25.3792 40.583 25.6837C40.6471 25.8492 40.7399 26.002 40.8571 26.1351C40.9915 26.3035 41.0542 26.3304 41.6238 26.7836C41.8782 26.9861 41.9212 27.0183 42.0215 27.0506C42.1356 27.0868 42.2575 27.0906 42.3737 27.0615C42.4898 27.0324 42.5955 26.9715 42.679 26.8858C42.9208 26.5561 42.4676 25.8485 42.1415 25.4849C41.717 25.0137 40.9735 24.5014 40.6618 24.7217Z" fill="#C07124"/>
<path d="M58.0207 33.9028C58.9479 33.5989 59.7379 32.9771 60.251 32.1472C61.2631 30.5438 60.8511 28.7435 60.5681 27.5127C60.2098 25.99 59.8802 24.5193 58.5169 23.6343C56.9763 22.6329 54.6385 22.7081 53.234 24.0087C51.98 25.1731 51.98 26.8463 51.98 27.8424C51.98 28.1845 52.0355 32.1149 54.8588 33.5552C55.1454 33.7021 56.4747 34.3757 58.0207 33.9028Z" fill="#79422B"/>
<path d="M55.425 24.6447C55.3864 24.6448 55.3484 24.6345 55.315 24.615C55.2816 24.5955 55.254 24.5674 55.2351 24.5336C54.9246 23.9788 54.5762 23.4461 54.1925 22.9392C53.7244 22.318 53.2049 21.7373 52.6394 21.2033C52.5973 21.1633 52.5728 21.1082 52.5711 21.0502C52.5695 20.9922 52.5908 20.9358 52.6304 20.8934C52.6717 20.8526 52.7273 20.8297 52.7854 20.8297C52.8434 20.8297 52.8991 20.8526 52.9403 20.8934C53.5239 21.4441 54.0597 22.0434 54.5418 22.6848C54.9376 23.2082 55.2967 23.7583 55.6167 24.3312C55.645 24.3818 55.652 24.4415 55.6362 24.4973C55.6204 24.553 55.5831 24.6003 55.5325 24.6285C55.4985 24.6425 55.4616 24.648 55.425 24.6447Z" fill="#C07124"/>
<path d="M56.4139 23.8546C56.5178 24.0571 56.2956 24.4118 56.0968 24.5945C55.9861 24.692 55.8586 24.7684 55.7206 24.8202C55.5558 24.8919 55.4984 24.8883 54.9037 24.9994C54.7746 25.0398 54.6389 25.0544 54.5042 25.0424C54.4058 25.0247 54.3143 24.98 54.2399 24.9132C54.1656 24.8465 54.1113 24.7603 54.0832 24.6644C54.0331 24.3276 54.6422 23.9818 55.0273 23.8403C55.5218 23.6594 56.2688 23.5698 56.4139 23.8546Z" fill="#C07124"/>
<path d="M43.1467 19.7326C42.7771 19.0021 42.678 18.1644 42.8672 17.3679C43.2255 15.8147 44.5261 14.9943 45.4289 14.4282C46.5396 13.7331 47.6109 13.0595 48.9473 13.3444C50.4557 13.665 51.7974 15.0964 51.8583 16.7015C51.9139 18.1346 50.9214 19.1307 50.3302 19.7218C50.1278 19.9261 47.7631 22.2298 45.2319 21.404C44.9739 21.3198 43.7826 20.94 43.1467 19.7326Z" fill="#79422B"/>
<path d="M50.3105 15.8667C50.263 15.8665 50.2169 15.8508 50.179 15.8221C50.1412 15.7933 50.1138 15.753 50.101 15.7072C50.0931 15.6797 50.0907 15.6509 50.094 15.6224C50.0973 15.594 50.1062 15.5665 50.1202 15.5415C50.1342 15.5165 50.153 15.4946 50.1755 15.4769C50.198 15.4592 50.2238 15.4462 50.2514 15.4385C50.7804 15.2881 51.3191 15.1743 51.8637 15.0981C52.5319 15.0056 53.2066 14.9685 53.8808 14.9871C53.9097 14.9878 53.9381 14.9942 53.9645 15.0059C53.9909 15.0177 54.0147 15.0345 54.0345 15.0555C54.0543 15.0765 54.0698 15.1012 54.08 15.1282C54.0902 15.1552 54.095 15.1839 54.094 15.2128C54.0941 15.2418 54.0882 15.2705 54.0767 15.2971C54.0652 15.3238 54.0483 15.3477 54.0271 15.3676C54.006 15.3874 53.981 15.4027 53.9536 15.4124C53.9263 15.4221 53.8972 15.4262 53.8683 15.4242C53.2179 15.4054 52.5672 15.4413 51.9228 15.5317C51.3959 15.6054 50.8746 15.715 50.3625 15.8595C50.3455 15.8639 50.3281 15.8663 50.3105 15.8667Z" fill="#C07124"/>
<path d="M50.0632 14.722C49.8841 14.7811 49.8035 15.1251 49.8124 15.3508C49.8205 15.4746 49.8508 15.596 49.902 15.7091C49.9575 15.8488 49.9934 15.8882 50.28 16.3002C50.409 16.4883 50.4305 16.5206 50.4914 16.5618C50.56 16.6097 50.6407 16.6375 50.7243 16.6419C50.8079 16.6464 50.891 16.6273 50.9643 16.5869C51.1954 16.4185 51.0396 15.8506 50.8945 15.5389C50.7082 15.1376 50.3176 14.6396 50.0632 14.722Z" fill="#C07124"/>
</g>
</svg>
